<svg xmlns="http://www.w3.org/2000/svg" xmlns:xlink="http://www.w3.org/1999/xlink" version="1.1" viewBox="0 0 3100 772" style="background: #111111"><defs><style>@import url(https://fonts.googleapis.com/css?family=Open+Sans:400,700);</style></defs><defs joint-selector="defs"></defs><g joint-selector="layers"  transform="matrix(1,0,0,1,0,0)"><g ></g><g ><!--z-index:1--><!--z-index:2--><!--z-index:3--><!--z-index:4--><!--z-index:5--><!--z-index:6--><!--z-index:7--><!--z-index:8--><!--z-index:9--><!--z-index:10--><!--z-index:11--><!--z-index:12--><g   id="j_2"  transform="translate(20,735.6)"><g id="v-5"><text  id="v-6" font-size="22px" xml:space="preserve" y="0.8em" font-weight="normal" text-anchor="start" fill="#777777" pointer-events="none" display="block" font-family="Open Sans"><tspan dy="0"  display="block">Friday, January 17, 2025 at 10:40 AM Coordinated Universal Time</tspan></text></g></g><!--z-index:13--><g   id="j_1"  transform="translate(20,692.4)"><g id="v-3"><text  id="v-4" font-size="36px" xml:space="preserve" y="0.8em" font-weight="normal" text-anchor="start" fill="#bbbbbb" pointer-events="none" display="block" font-family="Open Sans"><tspan dy="0"  display="block">Accessing Web Services with a Browser</tspan></text></g></g><!--z-index:14--><g   id="j_3"  transform="translate(200,243)" style=""><g  id="v-13" style="opacity: 1;"><rect  id="v-14" rx="1" ry="1" stroke="#0c4177" stroke-width="2" pointer-events="visiblePainted" fill="#0d4884" width="450" height="300" style="fill: rgb(13, 72, 132); stroke: rgb(12, 65, 119);"></rect><text  id="v-15" font-size="34" xml:space="preserve" y="0.8em" font-weight="bold" text-anchor="middle" pointer-events="visible" font-family="Open Sans" fill="#ffffff" transform="matrix(1,0,0,1,225,82.1)" style="fill: rgb(255, 255, 255);"><tspan dy="0" >Public Domain Name</tspan><tspan dy="1.2em" x="0" >Service (DNS)</tspan></text><text  id="v-16" font-size="17" xml:space="preserve" y="0.8em" text-anchor="middle" font-family="Open Sans" fill="#ffffff" transform="matrix(1,0,0,1,225,163.7)" style="fill: rgb(255, 255, 255);"><tspan dy="0" >[Software System]</tspan></text><text  id="v-17" font-size="24" xml:space="preserve" y="0.8em" text-anchor="middle" font-family="Open Sans" fill="#ffffff" transform="matrix(1,0,0,1,225,194.1)" style="fill: rgb(255, 255, 255);"><tspan dy="0" >Public authority for DNS records</tspan></text><g  id="v-18" color="#ffffff" transform="matrix(1,0,0,1,222.5,268)" style="fill: rgb(255, 255, 255);" display="none"><g ></g><g ></g><g ></g><g ></g></g><image  id="v-19"></image></g></g><!--z-index:15--><g   id="j_4"  transform="translate(1700,243)" style=""><g  id="v-23" style="opacity: 1;"><rect  id="v-24" rx="1" ry="1" stroke="#0c4177" stroke-width="2" pointer-events="visiblePainted" fill="#0d4884" width="450" height="300" style="fill: rgb(13, 72, 132); stroke: rgb(12, 65, 119);"></rect><text  id="v-25" font-size="34" xml:space="preserve" y="0.8em" font-weight="bold" text-anchor="middle" pointer-events="visible" font-family="Open Sans" fill="#ffffff" transform="matrix(1,0,0,1,225,88.1)" style="fill: rgb(255, 255, 255);"><tspan dy="0" >Firewall</tspan></text><text  id="v-26" font-size="17" xml:space="preserve" y="0.8em" text-anchor="middle" font-family="Open Sans" fill="#ffffff" transform="matrix(1,0,0,1,225,128.9)" style="fill: rgb(255, 255, 255);"><tspan dy="0" >[Software System]</tspan></text><text  id="v-27" font-size="24" xml:space="preserve" y="0.8em" text-anchor="middle" font-family="Open Sans" fill="#ffffff" transform="matrix(1,0,0,1,225,159.3)" style="fill: rgb(255, 255, 255);"><tspan dy="0" >Controls network communications</tspan><tspan dy="1.2em" x="0" >between software systems.</tspan></text><g  id="v-28" color="#ffffff" transform="matrix(1,0,0,1,222.5,268)" style="fill: rgb(255, 255, 255);" display="none"><g ></g><g ></g><g ></g><g ></g></g><image  id="v-29"></image></g></g><!--z-index:16--><g   id="j_5"  transform="translate(950,243)" style=""><g  id="v-33" style="opacity: 1;"><rect  id="v-34" rx="10" ry="10" stroke="#0c4177" stroke-width="2" pointer-events="visiblePainted" fill="#0c4177" width="450" height="300" style="fill: rgb(12, 65, 119); stroke: rgb(12, 65, 119);"></rect><rect  id="v-35" rx="10" ry="10" stroke="#0c4177" stroke-width="0" pointer-events="visiblePainted" fill="#0d4884" width="430" height="250" x="10" y="40" style="fill: rgb(13, 72, 132);"></rect><ellipse  id="v-42" fill="#0d4884" cx="20" cy="20" rx="10" ry="10" style="fill: rgb(13, 72, 132);"></ellipse><ellipse  id="v-43" fill="#0d4884" cx="50" cy="20" rx="10" ry="10" style="fill: rgb(13, 72, 132);"></ellipse><ellipse  id="v-44" fill="#0d4884" cx="80" cy="20" rx="10" ry="10" style="fill: rgb(13, 72, 132);"></ellipse><rect  id="v-36" rx="10" ry="10" stroke="#444444" stroke-width="0" pointer-events="visiblePainted" fill="#0d4884" width="340" height="20" x="100" y="10" style="fill: rgb(13, 72, 132);"></rect><text  id="v-37" font-size="34" xml:space="preserve" y="0.8em" font-weight="bold" text-anchor="middle" pointer-events="visible" font-family="Open Sans" fill="#ffffff" transform="matrix(1,0,0,1,225,103.1)" style="fill: rgb(255, 255, 255);"><tspan dy="0" >Browser</tspan></text><text  id="v-38" font-size="17" xml:space="preserve" y="0.8em" text-anchor="middle" font-family="Open Sans" fill="#ffffff" transform="matrix(1,0,0,1,225,143.9)" style="fill: rgb(255, 255, 255);"><tspan dy="0" >[Software System]</tspan></text><text  id="v-39" font-size="24" xml:space="preserve" y="0.8em" text-anchor="middle" font-family="Open Sans" fill="#ffffff" transform="matrix(1,0,0,1,225,174.3)" style="fill: rgb(255, 255, 255);"><tspan dy="0" >Any browser used to access the</tspan><tspan dy="1.2em" x="0" >internet</tspan></text><g  id="v-40" font-weight="normal" text-anchor="middle" color="#ffffff" transform="matrix(1,0,0,1,222.5,258)" style="fill: rgb(255, 255, 255);" display="none"><g ></g><g ></g><g ></g><g ></g></g><image  id="v-41"></image></g></g><!--z-index:17--><g   id="j_6"  transform="translate(2450,243)" style=""><g  id="v-48" style="opacity: 1;"><rect  id="v-49" rx="1" ry="1" stroke="#0c4177" stroke-width="2" pointer-events="visiblePainted" fill="#0d4884" width="450" height="300" style="fill: rgb(13, 72, 132); stroke: rgb(12, 65, 119);"></rect><text  id="v-50" font-size="34" xml:space="preserve" y="0.8em" font-weight="bold" text-anchor="middle" pointer-events="visible" font-family="Open Sans" fill="#ffffff" transform="matrix(1,0,0,1,225,102.5)" style="fill: rgb(255, 255, 255);"><tspan dy="0" >Web Service</tspan></text><text  id="v-51" font-size="17" xml:space="preserve" y="0.8em" text-anchor="middle" font-family="Open Sans" fill="#ffffff" transform="matrix(1,0,0,1,225,143.3)" style="fill: rgb(255, 255, 255);"><tspan dy="0" >[Software System]</tspan></text><text  id="v-52" font-size="24" xml:space="preserve" y="0.8em" text-anchor="middle" font-family="Open Sans" fill="#ffffff" transform="matrix(1,0,0,1,225,173.7)" style="fill: rgb(255, 255, 255);"><tspan dy="0" >a computer providing web services</tspan></text><g  id="v-53" color="#ffffff" transform="matrix(1,0,0,1,222.5,268)" style="fill: rgb(255, 255, 255);" display="none"><g ></g><g ></g><g ></g><g ></g></g><image  id="v-54"></image></g></g><!--z-index:18--><g   id="j_7" ><path  stroke="#aaaaaa" d="M 950 483 L 809 539 C 802.9999999999999 541.6666666666666 796.9999999999999 541.6666666666666 791 539 L 650 483" id="v-68" stroke-width="2" stroke-dasharray="30 30" fill="none"></path><path  fill="black" stroke="black" d="M 0 0 0 0" transform="matrix(-0.928476707906966,0.37139063379983406,-0.37139063379983406,-0.928476707906966,950,483)"></path><path  fill="#aaaaaa" stroke="#aaaaaa" d="M 20 0 L 0 10 L 20 20 z" id="v-70" transform="matrix(0.9284766955435519,0.371390664708372,-0.371390664708372,0.9284766955435519,653.7139297307108,473.71522410255903)"></path><path  d="M 950 483 L 809 539 C 802.9999999999999 541.6666666666666 796.9999999999999 541.6666666666666 791 539 L 650 483" id="v-69" fill="none" style="cursor: default;"></path><g ><g id="v-62"  label-idx="0" cursor="move" transform="matrix(1,0,0,1,800,541)" style="cursor: default;"><rect joint-selector="rect" id="v-65" fill="#111111" rx="3" ry="3" pointer-events="none" width="136.08306884765625" height="62.0275764465332" transform="matrix(1,0,0,1,-68,-31)"></rect><text joint-selector="text" id="v-64" font-size="24px" xml:space="preserve" y="0.8em" fill="#aaaaaa" text-anchor="middle" pointer-events="none" font-family="Open Sans" font-weight="normal" transform="matrix(1,0,0,1,0,-24.4)"><tspan dy="0" >1: go to</tspan><tspan dy="1.2em" x="0" >nesofia.tech</tspan></text></g><g id="v-63"  label-idx="1" cursor="move" transform="matrix(1,0,0,1,790,581.7999877929688)" style="cursor: default;"><rect joint-selector="rect" id="v-67" fill="#ffffff" rx="3" ry="3"  width="0" height="0" transform="matrix(1,0,0,1,0,0)" display="none"></rect><text joint-selector="text" id="v-66" fill="#000000" font-size="14" text-anchor="middle" pointer-events="none"></text></g></g><g  display="none"><g  transform="translate(800, 543)" id="v-59"><circle  idx="0" r="10"></circle><path  idx="0" d="M16,5.333c-7.732,0-14,4.701-14,10.5c0,1.982,0.741,3.833,2.016,5.414L2,25.667l5.613-1.441c2.339,1.317,5.237,2.107,8.387,2.107c7.732,0,14-4.701,14-10.5C30,10.034,23.732,5.333,16,5.333z" transform="translate(5, -33)"></path><path  idx="0" transform="scale(.8) translate(9.5, -37)" d="M24.778,21.419 19.276,15.917 24.777,10.415 21.949,7.585 16.447,13.087 10.945,7.585 8.117,10.415 13.618,15.917 8.116,21.419 10.946,24.248 16.447,18.746 21.948,24.248z"><title>Remove vertex.</title></path></g></g><g  id="v-72" display="none"><g  id="v-60"><path  end="source" d="M 26 0 L 0 13 L 26 26 z"></path></g><g  id="v-61"><path  end="target" d="M 26 0 L 0 13 L 26 26 z"></path></g></g><g  id="v-71" display="none"><g  id="v-58" transform="translate(912.8246774688942, 497.7646671045527) "><g  event="remove"><circle r="11"></circle><path transform="scale(.8) translate(-16, -16)" d="M24.778,21.419 19.276,15.917 24.777,10.415 21.949,7.585 16.447,13.087 10.945,7.585 8.117,10.415 13.618,15.917 8.116,21.419 10.946,24.248 16.447,18.746 21.948,24.248z"></path><title>Remove link.</title></g><g  event="link:options"><circle r="11" transform="translate(25)"></circle><path fill="white" transform="scale(.55) translate(29, -16)" d="M31.229,17.736c0.064-0.571,0.104-1.148,0.104-1.736s-0.04-1.166-0.104-1.737l-4.377-1.557c-0.218-0.716-0.504-1.401-0.851-2.05l1.993-4.192c-0.725-0.91-1.549-1.734-2.458-2.459l-4.193,1.994c-0.647-0.347-1.334-0.632-2.049-0.849l-1.558-4.378C17.165,0.708,16.588,0.667,16,0.667s-1.166,0.041-1.737,0.105L12.707,5.15c-0.716,0.217-1.401,0.502-2.05,0.849L6.464,4.005C5.554,4.73,4.73,5.554,4.005,6.464l1.994,4.192c-0.347,0.648-0.632,1.334-0.849,2.05l-4.378,1.557C0.708,14.834,0.667,15.412,0.667,16s0.041,1.165,0.105,1.736l4.378,1.558c0.217,0.715,0.502,1.401,0.849,2.049l-1.994,4.193c0.725,0.909,1.549,1.733,2.459,2.458l4.192-1.993c0.648,0.347,1.334,0.633,2.05,0.851l1.557,4.377c0.571,0.064,1.148,0.104,1.737,0.104c0.588,0,1.165-0.04,1.736-0.104l1.558-4.377c0.715-0.218,1.399-0.504,2.049-0.851l4.193,1.993c0.909-0.725,1.733-1.549,2.458-2.458l-1.993-4.193c0.347-0.647,0.633-1.334,0.851-2.049L31.229,17.736zM16,20.871c-2.69,0-4.872-2.182-4.872-4.871c0-2.69,2.182-4.872,4.872-4.872c2.689,0,4.871,2.182,4.871,4.872C20.871,18.689,18.689,20.871,16,20.871z"></path><title>Link options.</title></g></g></g></g><!--z-index:19--><g   id="j_8" ><path  stroke="#aaaaaa" d="M 650 303 L 791 247 C 796.9999999999999 244.33333333333331 802.9999999999999 244.33333333333331 809 247 L 950 303" id="v-86" stroke-width="2" stroke-dasharray="30 30" fill="none"></path><path  fill="black" stroke="black" d="M 0 0 0 0" transform="matrix(0.9284766089996245,-0.3713908810681253,0.3713908810681253,0.9284766089996245,650,303)"></path><path  fill="#aaaaaa" stroke="#aaaaaa" d="M 20 0 L 0 10 L 20 20 z" id="v-88" transform="matrix(-0.928476707906966,-0.3713906337998342,0.3713906337998342,-0.928476707906966,946.2860707020087,312.2847757119897)"></path><path  d="M 650 303 L 791 247 C 796.9999999999999 244.33333333333331 802.9999999999999 244.33333333333331 809 247 L 950 303" id="v-87" fill="none" style="cursor: default;"></path><g ><g id="v-80"  label-idx="0" cursor="move" transform="matrix(1,0,0,1,800,245)" style="cursor: default;"><rect joint-selector="rect" id="v-83" fill="#111111" rx="3" ry="3" pointer-events="none" width="128.68763732910156" height="90.82758331298828" transform="matrix(1,0,0,1,-64.3,-45.4)"></rect><text joint-selector="text" id="v-82" font-size="24px" xml:space="preserve" y="0.8em" fill="#aaaaaa" text-anchor="middle" pointer-events="none" font-family="Open Sans" font-weight="normal" transform="matrix(1,0,0,1,0,-38.8)"><tspan dy="0" >2: return IP</tspan><tspan dy="1.2em" x="0" >address of</tspan><tspan dy="1.2em" x="0" >42.42.42.42</tspan></text></g><g id="v-81"  label-idx="1" cursor="move" transform="matrix(1,0,0,1,790,300.20001220703125)" style="cursor: default;"><rect joint-selector="rect" id="v-85" fill="#ffffff" rx="3" ry="3"  width="0" height="0" transform="matrix(1,0,0,1,0,0)" display="none"></rect><text joint-selector="text" id="v-84" fill="#000000" font-size="14" text-anchor="middle" pointer-events="none"></text></g></g><g  display="none"><g  transform="translate(800, 243)" id="v-77"><circle  idx="0" r="10"></circle><path  idx="0" d="M16,5.333c-7.732,0-14,4.701-14,10.5c0,1.982,0.741,3.833,2.016,5.414L2,25.667l5.613-1.441c2.339,1.317,5.237,2.107,8.387,2.107c7.732,0,14-4.701,14-10.5C30,10.034,23.732,5.333,16,5.333z" transform="translate(5, -33)"></path><path  idx="0" transform="scale(.8) translate(9.5, -37)" d="M24.778,21.419 19.276,15.917 24.777,10.415 21.949,7.585 16.447,13.087 10.945,7.585 8.117,10.415 13.618,15.917 8.116,21.419 10.946,24.248 16.447,18.746 21.948,24.248z"><title>Remove vertex.</title></path></g></g><g  id="v-90" display="none"><g  id="v-78"><path  end="source" d="M 26 0 L 0 13 L 26 26 z"></path></g><g  id="v-79"><path  end="target" d="M 26 0 L 0 13 L 26 26 z"></path></g></g><g  id="v-89" display="none"><g  id="v-76" transform="translate(687.1753225311057, 288.23533289544736) "><g  event="remove"><circle r="11"></circle><path transform="scale(.8) translate(-16, -16)" d="M24.778,21.419 19.276,15.917 24.777,10.415 21.949,7.585 16.447,13.087 10.945,7.585 8.117,10.415 13.618,15.917 8.116,21.419 10.946,24.248 16.447,18.746 21.948,24.248z"></path><title>Remove link.</title></g><g  event="link:options"><circle r="11" transform="translate(25)"></circle><path fill="white" transform="scale(.55) translate(29, -16)" d="M31.229,17.736c0.064-0.571,0.104-1.148,0.104-1.736s-0.04-1.166-0.104-1.737l-4.377-1.557c-0.218-0.716-0.504-1.401-0.851-2.05l1.993-4.192c-0.725-0.91-1.549-1.734-2.458-2.459l-4.193,1.994c-0.647-0.347-1.334-0.632-2.049-0.849l-1.558-4.378C17.165,0.708,16.588,0.667,16,0.667s-1.166,0.041-1.737,0.105L12.707,5.15c-0.716,0.217-1.401,0.502-2.05,0.849L6.464,4.005C5.554,4.73,4.73,5.554,4.005,6.464l1.994,4.192c-0.347,0.648-0.632,1.334-0.849,2.05l-4.378,1.557C0.708,14.834,0.667,15.412,0.667,16s0.041,1.165,0.105,1.736l4.378,1.558c0.217,0.715,0.502,1.401,0.849,2.049l-1.994,4.193c0.725,0.909,1.549,1.733,2.459,2.458l4.192-1.993c0.648,0.347,1.334,0.633,2.05,0.851l1.557,4.377c0.571,0.064,1.148,0.104,1.737,0.104c0.588,0,1.165-0.04,1.736-0.104l1.558-4.377c0.715-0.218,1.399-0.504,2.049-0.851l4.193,1.993c0.909-0.725,1.733-1.549,2.458-2.458l-1.993-4.193c0.347-0.647,0.633-1.334,0.851-2.049L31.229,17.736zM16,20.871c-2.69,0-4.872-2.182-4.872-4.871c0-2.69,2.182-4.872,4.872-4.872c2.689,0,4.871,2.182,4.871,4.872C20.871,18.689,18.689,20.871,16,20.871z"></path><title>Link options.</title></g></g></g></g><!--z-index:20--><g   id="j_9" ><path  stroke="#aaaaaa" d="M 1400 303 L 1541 247 C 1547 244.33333333333331 1553 244.33333333333331 1559 247 L 1700 303" id="v-104" stroke-width="2" stroke-dasharray="30 30" fill="none"></path><path  fill="black" stroke="black" d="M 0 0 0 0" transform="matrix(0.9284766089996245,-0.3713908810681253,0.3713908810681253,0.9284766089996245,1400,303)"></path><path  fill="#aaaaaa" stroke="#aaaaaa" d="M 20 0 L 0 10 L 20 20 z" id="v-106" transform="matrix(-0.928476707906966,-0.3713906337998342,0.3713906337998342,-0.928476707906966,1696.2860707020088,312.2847757119897)"></path><path  d="M 1400 303 L 1541 247 C 1547 244.33333333333331 1553 244.33333333333331 1559 247 L 1700 303" id="v-105" fill="none" style="cursor: default;"></path><g ><g id="v-98"  label-idx="0" cursor="move" transform="matrix(1,0,0,1,1550,245)" style="cursor: default;"><rect joint-selector="rect" id="v-101" fill="#111111" rx="3" ry="3" pointer-events="none" width="198.55783081054688" height="90.82758331298828" transform="matrix(1,0,0,1,-99.3,-45.4)"></rect><text joint-selector="text" id="v-100" font-size="24px" xml:space="preserve" y="0.8em" fill="#aaaaaa" text-anchor="middle" pointer-events="none" font-family="Open Sans" font-weight="normal" transform="matrix(1,0,0,1,0,-38.8)"><tspan dy="0" >3: ask 42.42.42.42</tspan><tspan dy="1.2em" x="0" >for website</tspan><tspan dy="1.2em" x="0" >service</tspan></text></g><g id="v-99"  label-idx="1" cursor="move" transform="matrix(1,0,0,1,1540,300.20001220703125)" style="cursor: default;"><rect joint-selector="rect" id="v-103" fill="#ffffff" rx="3" ry="3"  width="0" height="0" transform="matrix(1,0,0,1,0,0)" display="none"></rect><text joint-selector="text" id="v-102" fill="#000000" font-size="14" text-anchor="middle" pointer-events="none"></text></g></g><g  display="none"><g  transform="translate(1550, 243)" id="v-95"><circle  idx="0" r="10"></circle><path  idx="0" d="M16,5.333c-7.732,0-14,4.701-14,10.5c0,1.982,0.741,3.833,2.016,5.414L2,25.667l5.613-1.441c2.339,1.317,5.237,2.107,8.387,2.107c7.732,0,14-4.701,14-10.5C30,10.034,23.732,5.333,16,5.333z" transform="translate(5, -33)"></path><path  idx="0" transform="scale(.8) translate(9.5, -37)" d="M24.778,21.419 19.276,15.917 24.777,10.415 21.949,7.585 16.447,13.087 10.945,7.585 8.117,10.415 13.618,15.917 8.116,21.419 10.946,24.248 16.447,18.746 21.948,24.248z"><title>Remove vertex.</title></path></g></g><g  id="v-108" display="none"><g  id="v-96"><path  end="source" d="M 26 0 L 0 13 L 26 26 z"></path></g><g  id="v-97"><path  end="target" d="M 26 0 L 0 13 L 26 26 z"></path></g></g><g  id="v-107" display="none"><g  id="v-94" transform="translate(1437.1753225311056, 288.23533289544736) "><g  event="remove"><circle r="11"></circle><path transform="scale(.8) translate(-16, -16)" d="M24.778,21.419 19.276,15.917 24.777,10.415 21.949,7.585 16.447,13.087 10.945,7.585 8.117,10.415 13.618,15.917 8.116,21.419 10.946,24.248 16.447,18.746 21.948,24.248z"></path><title>Remove link.</title></g><g  event="link:options"><circle r="11" transform="translate(25)"></circle><path fill="white" transform="scale(.55) translate(29, -16)" d="M31.229,17.736c0.064-0.571,0.104-1.148,0.104-1.736s-0.04-1.166-0.104-1.737l-4.377-1.557c-0.218-0.716-0.504-1.401-0.851-2.05l1.993-4.192c-0.725-0.91-1.549-1.734-2.458-2.459l-4.193,1.994c-0.647-0.347-1.334-0.632-2.049-0.849l-1.558-4.378C17.165,0.708,16.588,0.667,16,0.667s-1.166,0.041-1.737,0.105L12.707,5.15c-0.716,0.217-1.401,0.502-2.05,0.849L6.464,4.005C5.554,4.73,4.73,5.554,4.005,6.464l1.994,4.192c-0.347,0.648-0.632,1.334-0.849,2.05l-4.378,1.557C0.708,14.834,0.667,15.412,0.667,16s0.041,1.165,0.105,1.736l4.378,1.558c0.217,0.715,0.502,1.401,0.849,2.049l-1.994,4.193c0.725,0.909,1.549,1.733,2.459,2.458l4.192-1.993c0.648,0.347,1.334,0.633,2.05,0.851l1.557,4.377c0.571,0.064,1.148,0.104,1.737,0.104c0.588,0,1.165-0.04,1.736-0.104l1.558-4.377c0.715-0.218,1.399-0.504,2.049-0.851l4.193,1.993c0.909-0.725,1.733-1.549,2.458-2.458l-1.993-4.193c0.347-0.647,0.633-1.334,0.851-2.049L31.229,17.736zM16,20.871c-2.69,0-4.872-2.182-4.872-4.871c0-2.69,2.182-4.872,4.872-4.872c2.689,0,4.871,2.182,4.871,4.872C20.871,18.689,18.689,20.871,16,20.871z"></path><title>Link options.</title></g></g></g></g><!--z-index:21--><g   id="j_10" ><path  stroke="#aaaaaa" d="M 2150 303 L 2291 247 C 2297 244.33333333333331 2303 244.33333333333331 2309 247 L 2450 303" id="v-122" stroke-width="2" stroke-dasharray="30 30" fill="none"></path><path  fill="black" stroke="black" d="M 0 0 0 0" transform="matrix(0.9284766089996245,-0.3713908810681253,0.3713908810681253,0.9284766089996245,2150,303)"></path><path  fill="#aaaaaa" stroke="#aaaaaa" d="M 20 0 L 0 10 L 20 20 z" id="v-124" transform="matrix(-0.928476707906966,-0.3713906337998342,0.3713906337998342,-0.928476707906966,2446.286192772321,312.2847757119897)"></path><path  d="M 2150 303 L 2291 247 C 2297 244.33333333333331 2303 244.33333333333331 2309 247 L 2450 303" id="v-123" fill="none" style="cursor: default;"></path><g ><g id="v-116"  label-idx="0" cursor="move" transform="matrix(1,0,0,1,2300,245)" style="cursor: default;"><rect joint-selector="rect" id="v-119" fill="#111111" rx="3" ry="3" pointer-events="none" width="168.36459350585938" height="90.82758331298828" transform="matrix(1,0,0,1,-84.2,-45.4)"></rect><text joint-selector="text" id="v-118" font-size="24px" xml:space="preserve" y="0.8em" fill="#aaaaaa" text-anchor="middle" pointer-events="none" font-family="Open Sans" font-weight="normal" transform="matrix(1,0,0,1,0,-38.8)"><tspan dy="0" >4: forward</tspan><tspan dy="1.2em" x="0" >request to web</tspan><tspan dy="1.2em" x="0" >service</tspan></text></g><g id="v-117"  label-idx="1" cursor="move" transform="matrix(1,0,0,1,2290,300.20001220703125)" style="cursor: default;"><rect joint-selector="rect" id="v-121" fill="#ffffff" rx="3" ry="3"  width="0" height="0" transform="matrix(1,0,0,1,0,0)" display="none"></rect><text joint-selector="text" id="v-120" fill="#000000" font-size="14" text-anchor="middle" pointer-events="none"></text></g></g><g  display="none"><g  transform="translate(2300, 243)" id="v-113"><circle  idx="0" r="10"></circle><path  idx="0" d="M16,5.333c-7.732,0-14,4.701-14,10.5c0,1.982,0.741,3.833,2.016,5.414L2,25.667l5.613-1.441c2.339,1.317,5.237,2.107,8.387,2.107c7.732,0,14-4.701,14-10.5C30,10.034,23.732,5.333,16,5.333z" transform="translate(5, -33)"></path><path  idx="0" transform="scale(.8) translate(9.5, -37)" d="M24.778,21.419 19.276,15.917 24.777,10.415 21.949,7.585 16.447,13.087 10.945,7.585 8.117,10.415 13.618,15.917 8.116,21.419 10.946,24.248 16.447,18.746 21.948,24.248z"><title>Remove vertex.</title></path></g></g><g  id="v-126" display="none"><g  id="v-114"><path  end="source" d="M 26 0 L 0 13 L 26 26 z"></path></g><g  id="v-115"><path  end="target" d="M 26 0 L 0 13 L 26 26 z"></path></g></g><g  id="v-125" display="none"><g  id="v-112" transform="translate(2187.175322531106, 288.23533289544736) "><g  event="remove"><circle r="11"></circle><path transform="scale(.8) translate(-16, -16)" d="M24.778,21.419 19.276,15.917 24.777,10.415 21.949,7.585 16.447,13.087 10.945,7.585 8.117,10.415 13.618,15.917 8.116,21.419 10.946,24.248 16.447,18.746 21.948,24.248z"></path><title>Remove link.</title></g><g  event="link:options"><circle r="11" transform="translate(25)"></circle><path fill="white" transform="scale(.55) translate(29, -16)" d="M31.229,17.736c0.064-0.571,0.104-1.148,0.104-1.736s-0.04-1.166-0.104-1.737l-4.377-1.557c-0.218-0.716-0.504-1.401-0.851-2.05l1.993-4.192c-0.725-0.91-1.549-1.734-2.458-2.459l-4.193,1.994c-0.647-0.347-1.334-0.632-2.049-0.849l-1.558-4.378C17.165,0.708,16.588,0.667,16,0.667s-1.166,0.041-1.737,0.105L12.707,5.15c-0.716,0.217-1.401,0.502-2.05,0.849L6.464,4.005C5.554,4.73,4.73,5.554,4.005,6.464l1.994,4.192c-0.347,0.648-0.632,1.334-0.849,2.05l-4.378,1.557C0.708,14.834,0.667,15.412,0.667,16s0.041,1.165,0.105,1.736l4.378,1.558c0.217,0.715,0.502,1.401,0.849,2.049l-1.994,4.193c0.725,0.909,1.549,1.733,2.459,2.458l4.192-1.993c0.648,0.347,1.334,0.633,2.05,0.851l1.557,4.377c0.571,0.064,1.148,0.104,1.737,0.104c0.588,0,1.165-0.04,1.736-0.104l1.558-4.377c0.715-0.218,1.399-0.504,2.049-0.851l4.193,1.993c0.909-0.725,1.733-1.549,2.458-2.458l-1.993-4.193c0.347-0.647,0.633-1.334,0.851-2.049L31.229,17.736zM16,20.871c-2.69,0-4.872-2.182-4.872-4.871c0-2.69,2.182-4.872,4.872-4.872c2.689,0,4.871,2.182,4.871,4.872C20.871,18.689,18.689,20.871,16,20.871z"></path><title>Link options.</title></g></g></g></g><!--z-index:22--><g   id="j_11" ><path  stroke="#aaaaaa" d="M 2450 483 L 2309 539 C 2303 541.6666666666666 2297 541.6666666666666 2291 539 L 2150 483" id="v-140" stroke-width="2" stroke-dasharray="30 30" fill="none"></path><path  fill="black" stroke="black" d="M 0 0 0 0" transform="matrix(-0.928476707906966,0.37139063379983406,-0.37139063379983406,-0.928476707906966,2450,483)"></path><path  fill="#aaaaaa" stroke="#aaaaaa" d="M 20 0 L 0 10 L 20 20 z" id="v-142" transform="matrix(0.9284766955435519,0.371390664708372,-0.371390664708372,0.9284766955435519,2153.7138076603983,473.71522410255903)"></path><path  d="M 2450 483 L 2309 539 C 2303 541.6666666666666 2297 541.6666666666666 2291 539 L 2150 483" id="v-141" fill="none" style="cursor: default;"></path><g ><g id="v-134"  label-idx="0" cursor="move" transform="matrix(1,0,0,1,2300,541)" style="cursor: default;"><rect joint-selector="rect" id="v-137" fill="#111111" rx="3" ry="3" pointer-events="none" width="175.20407104492188" height="62.0275764465332" transform="matrix(1,0,0,1,-87.5,-31)"></rect><text joint-selector="text" id="v-136" font-size="24px" xml:space="preserve" y="0.8em" fill="#aaaaaa" text-anchor="middle" pointer-events="none" font-family="Open Sans" font-weight="normal" transform="matrix(1,0,0,1,0,-24.4)"><tspan dy="0" >5: web service</tspan><tspan dy="1.2em" x="0" >returns request</tspan></text></g><g id="v-135"  label-idx="1" cursor="move" transform="matrix(1,0,0,1,2290,581.7999877929688)" style="cursor: default;"><rect joint-selector="rect" id="v-139" fill="#ffffff" rx="3" ry="3"  width="0" height="0" transform="matrix(1,0,0,1,0,0)" display="none"></rect><text joint-selector="text" id="v-138" fill="#000000" font-size="14" text-anchor="middle" pointer-events="none"></text></g></g><g  display="none"><g  transform="translate(2300, 543)" id="v-131"><circle  idx="0" r="10"></circle><path  idx="0" d="M16,5.333c-7.732,0-14,4.701-14,10.5c0,1.982,0.741,3.833,2.016,5.414L2,25.667l5.613-1.441c2.339,1.317,5.237,2.107,8.387,2.107c7.732,0,14-4.701,14-10.5C30,10.034,23.732,5.333,16,5.333z" transform="translate(5, -33)"></path><path  idx="0" transform="scale(.8) translate(9.5, -37)" d="M24.778,21.419 19.276,15.917 24.777,10.415 21.949,7.585 16.447,13.087 10.945,7.585 8.117,10.415 13.618,15.917 8.116,21.419 10.946,24.248 16.447,18.746 21.948,24.248z"><title>Remove vertex.</title></path></g></g><g  id="v-144" display="none"><g  id="v-132"><path  end="source" d="M 26 0 L 0 13 L 26 26 z"></path></g><g  id="v-133"><path  end="target" d="M 26 0 L 0 13 L 26 26 z"></path></g></g><g  id="v-143" display="none"><g  id="v-130" transform="translate(2412.824677468894, 497.7646671045527) "><g  event="remove"><circle r="11"></circle><path transform="scale(.8) translate(-16, -16)" d="M24.778,21.419 19.276,15.917 24.777,10.415 21.949,7.585 16.447,13.087 10.945,7.585 8.117,10.415 13.618,15.917 8.116,21.419 10.946,24.248 16.447,18.746 21.948,24.248z"></path><title>Remove link.</title></g><g  event="link:options"><circle r="11" transform="translate(25)"></circle><path fill="white" transform="scale(.55) translate(29, -16)" d="M31.229,17.736c0.064-0.571,0.104-1.148,0.104-1.736s-0.04-1.166-0.104-1.737l-4.377-1.557c-0.218-0.716-0.504-1.401-0.851-2.05l1.993-4.192c-0.725-0.91-1.549-1.734-2.458-2.459l-4.193,1.994c-0.647-0.347-1.334-0.632-2.049-0.849l-1.558-4.378C17.165,0.708,16.588,0.667,16,0.667s-1.166,0.041-1.737,0.105L12.707,5.15c-0.716,0.217-1.401,0.502-2.05,0.849L6.464,4.005C5.554,4.73,4.73,5.554,4.005,6.464l1.994,4.192c-0.347,0.648-0.632,1.334-0.849,2.05l-4.378,1.557C0.708,14.834,0.667,15.412,0.667,16s0.041,1.165,0.105,1.736l4.378,1.558c0.217,0.715,0.502,1.401,0.849,2.049l-1.994,4.193c0.725,0.909,1.549,1.733,2.459,2.458l4.192-1.993c0.648,0.347,1.334,0.633,2.05,0.851l1.557,4.377c0.571,0.064,1.148,0.104,1.737,0.104c0.588,0,1.165-0.04,1.736-0.104l1.558-4.377c0.715-0.218,1.399-0.504,2.049-0.851l4.193,1.993c0.909-0.725,1.733-1.549,2.458-2.458l-1.993-4.193c0.347-0.647,0.633-1.334,0.851-2.049L31.229,17.736zM16,20.871c-2.69,0-4.872-2.182-4.872-4.871c0-2.69,2.182-4.872,4.872-4.872c2.689,0,4.871,2.182,4.871,4.872C20.871,18.689,18.689,20.871,16,20.871z"></path><title>Link options.</title></g></g></g></g><!--z-index:23--><g   id="j_12" ><path  stroke="#aaaaaa" d="M 1700 483 L 1559 539 C 1553 541.6666666666666 1547 541.6666666666666 1541 539 L 1400 483" id="v-158" stroke-width="2" stroke-dasharray="30 30" fill="none"></path><path  fill="black" stroke="black" d="M 0 0 0 0" transform="matrix(-0.928476707906966,0.37139063379983406,-0.37139063379983406,-0.928476707906966,1700,483)"></path><path  fill="#aaaaaa" stroke="#aaaaaa" d="M 20 0 L 0 10 L 20 20 z" id="v-160" transform="matrix(0.9284766955435519,0.371390664708372,-0.371390664708372,0.9284766955435519,1403.7139297307108,473.71522410255903)"></path><path  d="M 1700 483 L 1559 539 C 1553 541.6666666666666 1547 541.6666666666666 1541 539 L 1400 483" id="v-159" fill="none" style="cursor: default;"></path><g ><g id="v-152"  label-idx="0" cursor="move" transform="matrix(1,0,0,1,1550,541)" style="cursor: default;"><rect joint-selector="rect" id="v-155" fill="#111111" rx="3" ry="3" pointer-events="none" width="180.3484649658203" height="62.0275764465332" transform="matrix(1,0,0,1,-89.9,-31)"></rect><text joint-selector="text" id="v-154" font-size="24px" xml:space="preserve" y="0.8em" fill="#aaaaaa" text-anchor="middle" pointer-events="none" font-family="Open Sans" font-weight="normal" transform="matrix(1,0,0,1,0,-24.4)"><tspan dy="0" >6: send request</tspan><tspan dy="1.2em" x="0" >back to browser</tspan></text></g><g id="v-153"  label-idx="1" cursor="move" transform="matrix(1,0,0,1,1540,581.7999877929688)" style="cursor: default;"><rect joint-selector="rect" id="v-157" fill="#ffffff" rx="3" ry="3"  width="0" height="0" transform="matrix(1,0,0,1,0,0)" display="none"></rect><text joint-selector="text" id="v-156" fill="#000000" font-size="14" text-anchor="middle" pointer-events="none"></text></g></g><g  display="none"><g  transform="translate(1550, 543)" id="v-149"><circle  idx="0" r="10"></circle><path  idx="0" d="M16,5.333c-7.732,0-14,4.701-14,10.5c0,1.982,0.741,3.833,2.016,5.414L2,25.667l5.613-1.441c2.339,1.317,5.237,2.107,8.387,2.107c7.732,0,14-4.701,14-10.5C30,10.034,23.732,5.333,16,5.333z" transform="translate(5, -33)"></path><path  idx="0" transform="scale(.8) translate(9.5, -37)" d="M24.778,21.419 19.276,15.917 24.777,10.415 21.949,7.585 16.447,13.087 10.945,7.585 8.117,10.415 13.618,15.917 8.116,21.419 10.946,24.248 16.447,18.746 21.948,24.248z"><title>Remove vertex.</title></path></g></g><g  id="v-162" display="none"><g  id="v-150"><path  end="source" d="M 26 0 L 0 13 L 26 26 z"></path></g><g  id="v-151"><path  end="target" d="M 26 0 L 0 13 L 26 26 z"></path></g></g><g  id="v-161" display="none"><g  id="v-148" transform="translate(1662.8246774688944, 497.7646671045527) "><g  event="remove"><circle r="11"></circle><path transform="scale(.8) translate(-16, -16)" d="M24.778,21.419 19.276,15.917 24.777,10.415 21.949,7.585 16.447,13.087 10.945,7.585 8.117,10.415 13.618,15.917 8.116,21.419 10.946,24.248 16.447,18.746 21.948,24.248z"></path><title>Remove link.</title></g><g  event="link:options"><circle r="11" transform="translate(25)"></circle><path fill="white" transform="scale(.55) translate(29, -16)" d="M31.229,17.736c0.064-0.571,0.104-1.148,0.104-1.736s-0.04-1.166-0.104-1.737l-4.377-1.557c-0.218-0.716-0.504-1.401-0.851-2.05l1.993-4.192c-0.725-0.91-1.549-1.734-2.458-2.459l-4.193,1.994c-0.647-0.347-1.334-0.632-2.049-0.849l-1.558-4.378C17.165,0.708,16.588,0.667,16,0.667s-1.166,0.041-1.737,0.105L12.707,5.15c-0.716,0.217-1.401,0.502-2.05,0.849L6.464,4.005C5.554,4.73,4.73,5.554,4.005,6.464l1.994,4.192c-0.347,0.648-0.632,1.334-0.849,2.05l-4.378,1.557C0.708,14.834,0.667,15.412,0.667,16s0.041,1.165,0.105,1.736l4.378,1.558c0.217,0.715,0.502,1.401,0.849,2.049l-1.994,4.193c0.725,0.909,1.549,1.733,2.459,2.458l4.192-1.993c0.648,0.347,1.334,0.633,2.05,0.851l1.557,4.377c0.571,0.064,1.148,0.104,1.737,0.104c0.588,0,1.165-0.04,1.736-0.104l1.558-4.377c0.715-0.218,1.399-0.504,2.049-0.851l4.193,1.993c0.909-0.725,1.733-1.549,2.458-2.458l-1.993-4.193c0.347-0.647,0.633-1.334,0.851-2.049L31.229,17.736zM16,20.871c-2.69,0-4.872-2.182-4.872-4.871c0-2.69,2.182-4.872,4.872-4.872c2.689,0,4.871,2.182,4.871,4.872C20.871,18.689,18.689,20.871,16,20.871z"></path><title>Link options.</title></g></g></g></g><!--z-index:24--></g><g ></g><g ></g><g ></g></g></svg>