<svg xmlns="http://www.w3.org/2000/svg" xmlns:xlink="http://www.w3.org/1999/xlink" version="1.1" viewBox="0 0 1893 2600" style="background: #111111"><defs><style>@import url(https://fonts.googleapis.com/css?family=Open+Sans:400,700);</style></defs><defs joint-selector="defs"></defs><g joint-selector="layers"  transform="matrix(1,0,0,1,0,0)"><g ></g><g ><!--z-index:1--><!--z-index:2--><!--z-index:3--><!--z-index:4--><!--z-index:5--><!--z-index:6--><!--z-index:7--><!--z-index:8--><!--z-index:9--><!--z-index:10--><!--z-index:11--><!--z-index:12--><!--z-index:13--><!--z-index:14--><!--z-index:15--><!--z-index:16--><!--z-index:17--><g   id="j_2"  transform="translate(20,2563.6)"><g id="v-5"><text  id="v-6" font-size="22px" xml:space="preserve" y="0.8em" font-weight="normal" text-anchor="start" fill="#777777" pointer-events="none" display="block" font-family="Open Sans"><tspan dy="0"  display="block">Tuesday, February 4, 2025 at 11:11 AM Coordinated Universal Time</tspan></text></g></g><!--z-index:18--><g   id="j_1"  transform="translate(20,2520.4)"><g id="v-3"><text  id="v-4" font-size="36px" xml:space="preserve" y="0.8em" font-weight="normal" text-anchor="start" fill="#bbbbbb" pointer-events="none" display="block" font-family="Open Sans"><tspan dy="0"  display="block">Using The Policy Tools</tspan></text></g></g><!--z-index:19--><g   id="j_3"  transform="translate(1150,2100)" style=""><g  id="v-13" style="opacity: 1;"><rect  id="v-14" rx="1" ry="1" stroke="#0c4177" stroke-width="2" pointer-events="visiblePainted" fill="#0d4884" width="450" height="300" style="fill: rgb(13, 72, 132); stroke: rgb(12, 65, 119);"></rect><text  id="v-15" font-size="34" xml:space="preserve" y="0.8em" font-weight="bold" text-anchor="middle" pointer-events="visible" font-family="Open Sans" fill="#ffffff" transform="matrix(1,0,0,1,225,67.7)" style="fill: rgb(255, 255, 255);"><tspan dy="0" >Neosofia Policy</tspan><tspan dy="1.2em" x="0" >Validation Service</tspan></text><text  id="v-16" font-size="17" xml:space="preserve" y="0.8em" text-anchor="middle" font-family="Open Sans" fill="#ffffff" transform="matrix(1,0,0,1,225,149.3)" style="fill: rgb(255, 255, 255);"><tspan dy="0" >[Software System]</tspan></text><text  id="v-17" font-size="24" xml:space="preserve" y="0.8em" text-anchor="middle" font-family="Open Sans" fill="#ffffff" transform="matrix(1,0,0,1,225,179.7)" style="fill: rgb(255, 255, 255);"><tspan dy="0" >A web service that validates</tspan><tspan dy="1.2em" x="0" >regulatory compliance</tspan></text><g  id="v-18" color="#ffffff" transform="matrix(1,0,0,1,222.5,268)" style="fill: rgb(255, 255, 255);" display="none"><g ></g><g ></g><g ></g><g ></g></g><image  id="v-19"></image></g></g><!--z-index:20--><g   id="j_4"  transform="translate(975,1500)" style=""><g  id="v-26" style="opacity: 1;"><rect  id="v-27" rx="1" ry="1" stroke="#0c4177" stroke-width="2" pointer-events="visiblePainted" fill="#0d4884" width="450" height="300" style="fill: rgb(13, 72, 132); stroke: rgb(12, 65, 119);"></rect><text  id="v-28" font-size="34" xml:space="preserve" y="0.8em" font-weight="bold" text-anchor="middle" pointer-events="visible" font-family="Open Sans" fill="#ffffff" transform="matrix(1,0,0,1,225,38.9)" style="fill: rgb(255, 255, 255);"><tspan dy="0" >Neosofia Evidence</tspan><tspan dy="1.2em" x="0" >Aggregation Service</tspan></text><text  id="v-29" font-size="17" xml:space="preserve" y="0.8em" text-anchor="middle" font-family="Open Sans" fill="#ffffff" transform="matrix(1,0,0,1,225,120.5)" style="fill: rgb(255, 255, 255);"><tspan dy="0" >[Software System]</tspan></text><text  id="v-30" font-size="24" xml:space="preserve" y="0.8em" text-anchor="middle" font-family="Open Sans" fill="#ffffff" transform="matrix(1,0,0,1,225,150.9)" style="fill: rgb(255, 255, 255);"><tspan dy="0" >A web service to gather data from</tspan><tspan dy="1.2em" x="0" >compliant systems that is then</tspan><tspan dy="1.2em" x="0" >passed into the policy service for</tspan><tspan dy="1.2em" x="0" >validation.</tspan></text><g  id="v-31" color="#ffffff" transform="matrix(1,0,0,1,222.5,268)" style="fill: rgb(255, 255, 255);" display="none"><g ></g><g ></g><g ></g><g ></g></g><image  id="v-32"></image></g></g><!--z-index:21--><g   id="j_5"  transform="translate(1000,200)" style=""><g  id="v-39" style="opacity: 1;"><rect  x="0" y="160" width="400" height="240" rx="70" id="v-41" stroke="#8c0303" stroke-width="2" pointer-events="visiblePainted" fill="#9b0303" style="fill: rgb(155, 3, 3); stroke: rgb(140, 3, 3);"></rect><circle  cx="200" cy="88.88888888888889" r="88.88888888888889" id="v-40" stroke="#8c0303" stroke-width="2" pointer-events="visiblePainted" fill="#9b0303" style="fill: rgb(155, 3, 3); stroke: rgb(140, 3, 3);"></circle><line  x1="80" y1="266.6666666666667" x2="80" y2="400" id="v-47" stroke="#8c0303" stroke-width="2" style="stroke: rgb(140, 3, 3);"></line><line  x1="320" y1="266.6666666666667" x2="320" y2="400" id="v-48" stroke="#8c0303" stroke-width="2" style="stroke: rgb(140, 3, 3);"></line><text  id="v-42" font-size="34" xml:space="preserve" y="0.8em" font-weight="bold" text-anchor="middle" pointer-events="visible" font-family="Open Sans" fill="#ffffff" transform="matrix(1,0,0,1,200,183.3)" style="fill: rgb(255, 255, 255);"><tspan dy="0" >Client Compliance</tspan><tspan dy="1.2em" x="0" >Staff</tspan></text><text  id="v-43" font-size="17" xml:space="preserve" y="0.8em" text-anchor="middle" font-family="Open Sans" fill="#ffffff" transform="matrix(1,0,0,1,200,264.9)" style="fill: rgb(255, 255, 255);"><tspan dy="0" >[Person]</tspan></text><text  id="v-44" font-size="24" xml:space="preserve" y="0.8em" text-anchor="middle" font-family="Open Sans" fill="#ffffff" transform="matrix(1,0,0,1,200,295.3)" style="fill: rgb(255, 255, 255);"><tspan dy="0" >responsible for ensuring that</tspan><tspan dy="1.2em" x="0" >the company operates in a</tspan><tspan dy="1.2em" x="0" >compliant manner.</tspan></text><g  id="v-45" font-weight="normal" text-anchor="middle" color="#ffffff" transform="matrix(1,0,0,1,197.5,368)" style="fill: rgb(255, 255, 255);" display="none"><g ></g><g ></g><g ></g><g ></g></g><image  id="v-46"></image></g></g><!--z-index:22--><g   id="j_6"  transform="translate(160,845)" style=""><g  id="v-55" style="opacity: 1;"><rect  x="0" y="160" width="400" height="240" rx="70" id="v-57" stroke="#8c0303" stroke-width="2" pointer-events="visiblePainted" fill="#9b0303" style="fill: rgb(155, 3, 3); stroke: rgb(140, 3, 3);"></rect><circle  cx="200" cy="88.88888888888889" r="88.88888888888889" id="v-56" stroke="#8c0303" stroke-width="2" pointer-events="visiblePainted" fill="#9b0303" style="fill: rgb(155, 3, 3); stroke: rgb(140, 3, 3);"></circle><line  x1="80" y1="266.6666666666667" x2="80" y2="400" id="v-63" stroke="#8c0303" stroke-width="2" style="stroke: rgb(140, 3, 3);"></line><line  x1="320" y1="266.6666666666667" x2="320" y2="400" id="v-64" stroke="#8c0303" stroke-width="2" style="stroke: rgb(140, 3, 3);"></line><text  id="v-58" font-size="34" xml:space="preserve" y="0.8em" font-weight="bold" text-anchor="middle" pointer-events="visible" font-family="Open Sans" fill="#ffffff" transform="matrix(1,0,0,1,200,218.1)" style="fill: rgb(255, 255, 255);"><tspan dy="0" >Client IT Staff</tspan></text><text  id="v-59" font-size="17" xml:space="preserve" y="0.8em" text-anchor="middle" font-family="Open Sans" fill="#ffffff" transform="matrix(1,0,0,1,200,258.9)" style="fill: rgb(255, 255, 255);"><tspan dy="0" >[Person]</tspan></text><text  id="v-60" font-size="24" xml:space="preserve" y="0.8em" text-anchor="middle" font-family="Open Sans" fill="#ffffff" transform="matrix(1,0,0,1,200,289.3)" style="fill: rgb(255, 255, 255);"><tspan dy="0" >responsible for administrating</tspan><tspan dy="1.2em" x="0" >IT systems</tspan></text><g  id="v-61" font-weight="normal" text-anchor="middle" color="#ffffff" transform="matrix(1,0,0,1,197.5,368)" style="fill: rgb(255, 255, 255);" display="none"><g ></g><g ></g><g ></g><g ></g></g><image  id="v-62"></image></g></g><!--z-index:23--><g   id="j_7"  transform="translate(400,2100)" style=""><g  id="v-71" style="opacity: 1;"><rect  id="v-72" rx="1" ry="1" stroke="#0c4177" stroke-width="2" pointer-events="visiblePainted" fill="#0d4884" width="450" height="300" style="fill: rgb(13, 72, 132); stroke: rgb(12, 65, 119);"></rect><text  id="v-73" font-size="34" xml:space="preserve" y="0.8em" font-weight="bold" text-anchor="middle" pointer-events="visible" font-family="Open Sans" fill="#ffffff" transform="matrix(1,0,0,1,225,88.1)" style="fill: rgb(255, 255, 255);"><tspan dy="0" >Client Web Service</tspan></text><text  id="v-74" font-size="17" xml:space="preserve" y="0.8em" text-anchor="middle" font-family="Open Sans" fill="#ffffff" transform="matrix(1,0,0,1,225,128.9)" style="fill: rgb(255, 255, 255);"><tspan dy="0" >[Software System]</tspan></text><text  id="v-75" font-size="24" xml:space="preserve" y="0.8em" text-anchor="middle" font-family="Open Sans" fill="#ffffff" transform="matrix(1,0,0,1,225,159.3)" style="fill: rgb(255, 255, 255);"><tspan dy="0" >one of many systems that provide a</tspan><tspan dy="1.2em" x="0" >client with services</tspan></text><g  id="v-76" color="#ffffff" transform="matrix(1,0,0,1,222.5,268)" style="fill: rgb(255, 255, 255);" display="none"><g ></g><g ></g><g ></g><g ></g></g><image  id="v-77"></image></g></g><!--z-index:24--><g   id="j_8"  transform="translate(975,900)" style=""><g  id="v-84" style="opacity: 1;"><rect  id="v-85" rx="1" ry="1" stroke="#0c4177" stroke-width="2" pointer-events="visiblePainted" fill="#0d4884" width="450" height="300" style="fill: rgb(13, 72, 132); stroke: rgb(12, 65, 119);"></rect><text  id="v-86" font-size="34" xml:space="preserve" y="0.8em" font-weight="bold" text-anchor="middle" pointer-events="visible" font-family="Open Sans" fill="#ffffff" transform="matrix(1,0,0,1,225,24.5)" style="fill: rgb(255, 255, 255);"><tspan dy="0" >Company Tracking Web</tspan><tspan dy="1.2em" x="0" >Site</tspan></text><text  id="v-87" font-size="17" xml:space="preserve" y="0.8em" text-anchor="middle" font-family="Open Sans" fill="#ffffff" transform="matrix(1,0,0,1,225,106.1)" style="fill: rgb(255, 255, 255);"><tspan dy="0" >[Software System]</tspan></text><text  id="v-88" font-size="24" xml:space="preserve" y="0.8em" text-anchor="middle" font-family="Open Sans" fill="#ffffff" transform="matrix(1,0,0,1,225,136.5)" style="fill: rgb(255, 255, 255);"><tspan dy="0" >Where clients go to sign up for</tspan><tspan dy="1.2em" x="0" >Neosofia services and track their</tspan><tspan dy="1.2em" x="0" >compliance status. Self hosted</tspan><tspan dy="1.2em" x="0" >model is also supported for</tspan><tspan dy="1.2em" x="0" >on-premises installations.</tspan></text><g  id="v-89" color="#ffffff" transform="matrix(1,0,0,1,222.5,268)" style="fill: rgb(255, 255, 255);" display="none"><g ></g><g ></g><g ></g><g ></g></g><image  id="v-90"></image></g></g><!--z-index:25--><g   id="j_9" ><path  stroke="#aaaaaa" d="M 1000 556 L 758 744 C 752.6666666666666 748 752.6666666666666 752 758 756 L 975 900" id="v-104" stroke-width="2" stroke-dasharray="30 30" fill="none"></path><path  fill="black" stroke="black" d="M 0 0 0 0" transform="matrix(-0.7893590727418118,0.6139317993720369,-0.6139317993720369,-0.7893590727418118,1000,555.5599975585938)"></path><path  fill="#aaaaaa" stroke="#aaaaaa" d="M 20 0 L 0 10 L 20 20 z" id="v-106" transform="matrix(-0.8320503335416467,-0.5547001374195201,0.5547001374195201,-0.8320503335416467,969.4530063557526,908.3205076392992)"></path><path  d="M 1000 556 L 758 744 C 752.6666666666666 748 752.6666666666666 752 758 756 L 975 900" id="v-105" fill="none" style="cursor: default;"></path><g ><g id="v-98"  label-idx="0" cursor="move" transform="matrix(1,0,0,1,770.26806640625,734.4694213867188)" style="cursor: default;"><rect joint-selector="rect" id="v-101" fill="#111111" rx="3" ry="3" pointer-events="none" width="195.70919799804688" height="205.1199722290039" transform="matrix(1,0,0,1,-97.9,-102.6)"></rect><text joint-selector="text" id="v-100" font-size="24px" xml:space="preserve" y="0.8em" fill="#aaaaaa" text-anchor="middle" pointer-events="none" font-family="Open Sans" font-weight="normal" transform="matrix(1,0,0,1,0,-96.5)"><tspan dy="0" >1: Signs up for</tspan><tspan dy="1.2em" x="0" >Neosofia services</tspan><tspan dy="1.2em" x="0" >by filling in</tspan><tspan dy="1.2em" x="0" >general company</tspan><tspan dy="1.2em" x="0" >info like industry,</tspan><tspan dy="1.2em" x="0" >sub-industry, and</tspan><tspan dy="1.2em" x="0" >company size</tspan></text></g><g id="v-99"  label-idx="1" cursor="move" transform="matrix(1,0,0,1,760.26806640625,847.2694091796875)" style="cursor: default;"><rect joint-selector="rect" id="v-103" fill="#ffffff" rx="3" ry="3"  width="0" height="0" transform="matrix(1,0,0,1,0,0)" display="none"></rect><text joint-selector="text" id="v-102" fill="#000000" font-size="14" text-anchor="middle" pointer-events="none"></text></g></g><g  display="none"><g  transform="translate(750, 750)" id="v-95"><circle  idx="0" r="10"></circle><path  idx="0" d="M16,5.333c-7.732,0-14,4.701-14,10.5c0,1.982,0.741,3.833,2.016,5.414L2,25.667l5.613-1.441c2.339,1.317,5.237,2.107,8.387,2.107c7.732,0,14-4.701,14-10.5C30,10.034,23.732,5.333,16,5.333z" transform="translate(5, -33)"></path><path  idx="0" transform="scale(.8) translate(9.5, -37)" d="M24.778,21.419 19.276,15.917 24.777,10.415 21.949,7.585 16.447,13.087 10.945,7.585 8.117,10.415 13.618,15.917 8.116,21.419 10.946,24.248 16.447,18.746 21.948,24.248z"><title>Remove vertex.</title></path></g></g><g  id="v-108" display="none"><g  id="v-96"><path  end="source" d="M 26 0 L 0 13 L 26 26 z"></path></g><g  id="v-97"><path  end="target" d="M 26 0 L 0 13 L 26 26 z"></path></g></g><g  id="v-107" display="none"><g  id="v-94" transform="translate(968.4118594538536, 580.5395472011385) "><g  event="remove"><circle r="11"></circle><path transform="scale(.8) translate(-16, -16)" d="M24.778,21.419 19.276,15.917 24.777,10.415 21.949,7.585 16.447,13.087 10.945,7.585 8.117,10.415 13.618,15.917 8.116,21.419 10.946,24.248 16.447,18.746 21.948,24.248z"></path><title>Remove link.</title></g><g  event="link:options"><circle r="11" transform="translate(25)"></circle><path fill="white" transform="scale(.55) translate(29, -16)" d="M31.229,17.736c0.064-0.571,0.104-1.148,0.104-1.736s-0.04-1.166-0.104-1.737l-4.377-1.557c-0.218-0.716-0.504-1.401-0.851-2.05l1.993-4.192c-0.725-0.91-1.549-1.734-2.458-2.459l-4.193,1.994c-0.647-0.347-1.334-0.632-2.049-0.849l-1.558-4.378C17.165,0.708,16.588,0.667,16,0.667s-1.166,0.041-1.737,0.105L12.707,5.15c-0.716,0.217-1.401,0.502-2.05,0.849L6.464,4.005C5.554,4.73,4.73,5.554,4.005,6.464l1.994,4.192c-0.347,0.648-0.632,1.334-0.849,2.05l-4.378,1.557C0.708,14.834,0.667,15.412,0.667,16s0.041,1.165,0.105,1.736l4.378,1.558c0.217,0.715,0.502,1.401,0.849,2.049l-1.994,4.193c0.725,0.909,1.549,1.733,2.459,2.458l4.192-1.993c0.648,0.347,1.334,0.633,2.05,0.851l1.557,4.377c0.571,0.064,1.148,0.104,1.737,0.104c0.588,0,1.165-0.04,1.736-0.104l1.558-4.377c0.715-0.218,1.399-0.504,2.049-0.851l4.193,1.993c0.909-0.725,1.733-1.549,2.458-2.458l-1.993-4.193c0.347-0.647,0.633-1.334,0.851-2.049L31.229,17.736zM16,20.871c-2.69,0-4.872-2.182-4.872-4.871c0-2.69,2.182-4.872,4.872-4.872c2.689,0,4.871,2.182,4.871,4.872C20.871,18.689,18.689,20.871,16,20.871z"></path><title>Link options.</title></g></g></g></g><!--z-index:26--><g   id="j_10" ><path  stroke="#aaaaaa" d="M 560 1048 L 720 1050 C 726.6666666666666 1050 733.3333333333333 1050 740 1050 L 975 1050" id="v-121" stroke-width="2" stroke-dasharray="30 30" fill="none"></path><path  fill="black" stroke="black" d="M 0 0 0 0" transform="matrix(0.9999084900650389,0.013528174150789418,-0.013528174150789418,0.9999084900650389,560,1047.699951171875)"></path><path  fill="#aaaaaa" stroke="#aaaaaa" d="M 20 0 L 0 10 L 20 20 z" id="v-123" transform="matrix(-1,1.2246467991473532e-16,-1.2246467991473532e-16,-1,975,1060)"></path><path  d="M 560 1048 L 720 1050 C 726.6666666666666 1050 733.3333333333333 1050 740 1050 L 975 1050" id="v-122" fill="none" style="cursor: default;"></path><g ><g id="v-115"  label-idx="0" cursor="move" transform="matrix(1,0,0,1,767.4937744140625,1050)" style="cursor: default;"><rect joint-selector="rect" id="v-118" fill="#111111" rx="3" ry="3" pointer-events="none" width="197.5864715576172" height="291.5199737548828" transform="matrix(1,0,0,1,-98.8,-145.8)"></rect><text joint-selector="text" id="v-117" font-size="24px" xml:space="preserve" y="0.8em" fill="#aaaaaa" text-anchor="middle" pointer-events="none" font-family="Open Sans" font-weight="normal" transform="matrix(1,0,0,1,0,-139.7)"><tspan dy="0" >2: fill in additional</tspan><tspan dy="1.2em" x="0" >technical</tspan><tspan dy="1.2em" x="0" >information that</tspan><tspan dy="1.2em" x="0" >points to the</tspan><tspan dy="1.2em" x="0" >services that</tspan><tspan dy="1.2em" x="0" >need to be</tspan><tspan dy="1.2em" x="0" >validated. User is</tspan><tspan dy="1.2em" x="0" >guided based on</tspan><tspan dy="1.2em" x="0" >general company</tspan><tspan dy="1.2em" x="0" >info</tspan></text></g><g id="v-116"  label-idx="1" cursor="move" transform="matrix(1,0,0,1,757.4937744140625,1206)" style="cursor: default;"><rect joint-selector="rect" id="v-120" fill="#ffffff" rx="3" ry="3"  width="0" height="0" transform="matrix(1,0,0,1,0,0)" display="none"></rect><text joint-selector="text" id="v-119" fill="#000000" font-size="14" text-anchor="middle" pointer-events="none"></text></g></g><g  display="none"><g  transform="translate(730, 1050)" id="v-505"><circle  idx="0" r="10"></circle><path  idx="0" d="M16,5.333c-7.732,0-14,4.701-14,10.5c0,1.982,0.741,3.833,2.016,5.414L2,25.667l5.613-1.441c2.339,1.317,5.237,2.107,8.387,2.107c7.732,0,14-4.701,14-10.5C30,10.034,23.732,5.333,16,5.333z" transform="translate(5, -33)"></path><path  idx="0" transform="scale(.8) translate(9.5, -37)" d="M24.778,21.419 19.276,15.917 24.777,10.415 21.949,7.585 16.447,13.087 10.945,7.585 8.117,10.415 13.618,15.917 8.116,21.419 10.946,24.248 16.447,18.746 21.948,24.248z"><title>Remove vertex.</title></path></g></g><g  id="v-125" display="none"><g  id="v-113"><path  end="source" d="M 26 0 L 0 13 L 26 26 z"></path></g><g  id="v-114"><path  end="target" d="M 26 0 L 0 13 L 26 26 z"></path></g></g><g  id="v-124" display="none"><g  id="v-112" transform="translate(599.9968753661633, 1048.499960942077) "><g  event="remove"><circle r="11"></circle><path transform="scale(.8) translate(-16, -16)" d="M24.778,21.419 19.276,15.917 24.777,10.415 21.949,7.585 16.447,13.087 10.945,7.585 8.117,10.415 13.618,15.917 8.116,21.419 10.946,24.248 16.447,18.746 21.948,24.248z"></path><title>Remove link.</title></g><g  event="link:options"><circle r="11" transform="translate(25)"></circle><path fill="white" transform="scale(.55) translate(29, -16)" d="M31.229,17.736c0.064-0.571,0.104-1.148,0.104-1.736s-0.04-1.166-0.104-1.737l-4.377-1.557c-0.218-0.716-0.504-1.401-0.851-2.05l1.993-4.192c-0.725-0.91-1.549-1.734-2.458-2.459l-4.193,1.994c-0.647-0.347-1.334-0.632-2.049-0.849l-1.558-4.378C17.165,0.708,16.588,0.667,16,0.667s-1.166,0.041-1.737,0.105L12.707,5.15c-0.716,0.217-1.401,0.502-2.05,0.849L6.464,4.005C5.554,4.73,4.73,5.554,4.005,6.464l1.994,4.192c-0.347,0.648-0.632,1.334-0.849,2.05l-4.378,1.557C0.708,14.834,0.667,15.412,0.667,16s0.041,1.165,0.105,1.736l4.378,1.558c0.217,0.715,0.502,1.401,0.849,2.049l-1.994,4.193c0.725,0.909,1.549,1.733,2.459,2.458l4.192-1.993c0.648,0.347,1.334,0.633,2.05,0.851l1.557,4.377c0.571,0.064,1.148,0.104,1.737,0.104c0.588,0,1.165-0.04,1.736-0.104l1.558-4.377c0.715-0.218,1.399-0.504,2.049-0.851l4.193,1.993c0.909-0.725,1.733-1.549,2.458-2.458l-1.993-4.193c0.347-0.647,0.633-1.334,0.851-2.049L31.229,17.736zM16,20.871c-2.69,0-4.872-2.182-4.872-4.871c0-2.69,2.182-4.872,4.872-4.872c2.689,0,4.871,2.182,4.871,4.872C20.871,18.689,18.689,20.871,16,20.871z"></path><title>Link options.</title></g></g></g></g><!--z-index:27--><g   id="j_11" ><path  stroke="#aaaaaa" d="M 1059 600 L 991 697 C 987 702.3333333333333 986.6666666666666 707.6666666666666 990 713 L 1107 900" id="v-139" stroke-width="2" stroke-dasharray="30 30" fill="none"></path><path  fill="black" stroke="black" d="M 0 0 0 0" transform="matrix(-0.5761757804356298,0.8173258040949111,-0.8173258040949111,-0.5761757804356298,1059.02001953125,600)"></path><path  fill="#aaaaaa" stroke="#aaaaaa" d="M 20 0 L 0 10 L 20 20 z" id="v-141" transform="matrix(-0.5288874207464691,-0.8486919913467709,0.8486919913467709,-0.5288874207464691,1098.0330333955594,905.2888556443698)"></path><path  d="M 1059 600 L 991 697 C 987 702.3333333333333 986.6666666666666 707.6666666666666 990 713 L 1107 900" id="v-140" fill="none" style="cursor: default;"></path><g ><g id="v-133"  label-idx="0" cursor="move" transform="matrix(1,0,0,1,1012.5209350585938,748.9949951171875)" style="cursor: default;"><rect joint-selector="rect" id="v-136" fill="#111111" rx="3" ry="3" pointer-events="none" width="186.56431579589844" height="89.91996002197266" transform="matrix(1,0,0,1,-93.3,-45)"></rect><text joint-selector="text" id="v-135" font-size="24px" xml:space="preserve" y="0.8em" fill="#aaaaaa" text-anchor="middle" pointer-events="none" font-family="Open Sans" font-weight="normal" transform="matrix(1,0,0,1,0,-38.9)"><tspan dy="0" >3: manually start</tspan><tspan dy="1.2em" x="0" >validation</tspan><tspan dy="1.2em" x="0" >process (button)</tspan></text></g><g id="v-134"  label-idx="1" cursor="move" transform="matrix(1,0,0,1,1002.5209350585938,804.1950073242188)" style="cursor: default;"><rect joint-selector="rect" id="v-138" fill="#ffffff" rx="3" ry="3"  width="0" height="0" transform="matrix(1,0,0,1,0,0)" display="none"></rect><text joint-selector="text" id="v-137" fill="#000000" font-size="14" text-anchor="middle" pointer-events="none"></text></g></g><g  display="none"><g  transform="translate(985, 705)" id="v-468"><circle  idx="0" r="10"></circle><path  idx="0" d="M16,5.333c-7.732,0-14,4.701-14,10.5c0,1.982,0.741,3.833,2.016,5.414L2,25.667l5.613-1.441c2.339,1.317,5.237,2.107,8.387,2.107c7.732,0,14-4.701,14-10.5C30,10.034,23.732,5.333,16,5.333z" transform="translate(5, -33)"></path><path  idx="0" transform="scale(.8) translate(9.5, -37)" d="M24.778,21.419 19.276,15.917 24.777,10.415 21.949,7.585 16.447,13.087 10.945,7.585 8.117,10.415 13.618,15.917 8.116,21.419 10.946,24.248 16.447,18.746 21.948,24.248z"><title>Remove vertex.</title></path></g></g><g  id="v-143" display="none"><g  id="v-131"><path  end="source" d="M 26 0 L 0 13 L 26 26 z"></path></g><g  id="v-132"><path  end="target" d="M 26 0 L 0 13 L 26 26 z"></path></g></g><g  id="v-142" display="none"><g  id="v-129" transform="translate(1036.0388496989929, 632.7534055764368) "><g  event="remove"><circle r="11"></circle><path transform="scale(.8) translate(-16, -16)" d="M24.778,21.419 19.276,15.917 24.777,10.415 21.949,7.585 16.447,13.087 10.945,7.585 8.117,10.415 13.618,15.917 8.116,21.419 10.946,24.248 16.447,18.746 21.948,24.248z"></path><title>Remove link.</title></g><g  event="link:options"><circle r="11" transform="translate(25)"></circle><path fill="white" transform="scale(.55) translate(29, -16)" d="M31.229,17.736c0.064-0.571,0.104-1.148,0.104-1.736s-0.04-1.166-0.104-1.737l-4.377-1.557c-0.218-0.716-0.504-1.401-0.851-2.05l1.993-4.192c-0.725-0.91-1.549-1.734-2.458-2.459l-4.193,1.994c-0.647-0.347-1.334-0.632-2.049-0.849l-1.558-4.378C17.165,0.708,16.588,0.667,16,0.667s-1.166,0.041-1.737,0.105L12.707,5.15c-0.716,0.217-1.401,0.502-2.05,0.849L6.464,4.005C5.554,4.73,4.73,5.554,4.005,6.464l1.994,4.192c-0.347,0.648-0.632,1.334-0.849,2.05l-4.378,1.557C0.708,14.834,0.667,15.412,0.667,16s0.041,1.165,0.105,1.736l4.378,1.558c0.217,0.715,0.502,1.401,0.849,2.049l-1.994,4.193c0.725,0.909,1.549,1.733,2.459,2.458l4.192-1.993c0.648,0.347,1.334,0.633,2.05,0.851l1.557,4.377c0.571,0.064,1.148,0.104,1.737,0.104c0.588,0,1.165-0.04,1.736-0.104l1.558-4.377c0.715-0.218,1.399-0.504,2.049-0.851l4.193,1.993c0.909-0.725,1.733-1.549,2.458-2.458l-1.993-4.193c0.347-0.647,0.633-1.334,0.851-2.049L31.229,17.736zM16,20.871c-2.69,0-4.872-2.182-4.872-4.871c0-2.69,2.182-4.872,4.872-4.872c2.689,0,4.871,2.182,4.871,4.872C20.871,18.689,18.689,20.871,16,20.871z"></path><title>Link options.</title></g></g></g></g><!--z-index:28--><g   id="j_12" ><path  stroke="#aaaaaa" d="M 1200 1200 L 1200 1500" id="v-156" stroke-width="2" stroke-dasharray="30 30" fill="none"></path><path  fill="black" stroke="black" d="M 0 0 0 0" transform="matrix(6.123233995736766e-17,1,-1,6.123233995736766e-17,1200,1200)"></path><path  fill="#aaaaaa" stroke="#aaaaaa" d="M 20 0 L 0 10 L 20 20 z" id="v-158" transform="matrix(-1.8369701987210297e-16,-1,1,-1.8369701987210297e-16,1190,1500)"></path><path  d="M 1200 1200 L 1200 1500" id="v-157" fill="none" style="cursor: default;"></path><g ><g id="v-150"  label-idx="0" cursor="move" transform="matrix(1,0,0,1,1200,1350)" style="cursor: default;"><rect joint-selector="rect" id="v-153" fill="#111111" rx="3" ry="3" pointer-events="none" width="201.05560302734375" height="89.91996002197266" transform="matrix(1,0,0,1,-101.2,-45)"></rect><text joint-selector="text" id="v-152" font-size="24px" xml:space="preserve" y="0.8em" fill="#aaaaaa" text-anchor="middle" pointer-events="none" font-family="Open Sans" font-weight="normal" transform="matrix(1,0,0,1,0,-38.9)"><tspan dy="0" >4: initiates</tspan><tspan dy="1.2em" x="0" >evidence</tspan><tspan dy="1.2em" x="0" >gathering process</tspan></text></g><g id="v-151"  label-idx="1" cursor="move" transform="matrix(1,0,0,1,1190,1405.199951171875)" style="cursor: default;"><rect joint-selector="rect" id="v-155" fill="#ffffff" rx="3" ry="3"  width="0" height="0" transform="matrix(1,0,0,1,0,0)" display="none"></rect><text joint-selector="text" id="v-154" fill="#000000" font-size="14" text-anchor="middle" pointer-events="none"></text></g></g><g  display="none"></g><g  id="v-160" display="none"><g  id="v-148"><path  end="source" d="M 26 0 L 0 13 L 26 26 z"></path></g><g  id="v-149"><path  end="target" d="M 26 0 L 0 13 L 26 26 z"></path></g></g><g  id="v-159" display="none"><g  id="v-147" transform="translate(1200, 1240) "><g  event="remove"><circle r="11"></circle><path transform="scale(.8) translate(-16, -16)" d="M24.778,21.419 19.276,15.917 24.777,10.415 21.949,7.585 16.447,13.087 10.945,7.585 8.117,10.415 13.618,15.917 8.116,21.419 10.946,24.248 16.447,18.746 21.948,24.248z"></path><title>Remove link.</title></g><g  event="link:options"><circle r="11" transform="translate(25)"></circle><path fill="white" transform="scale(.55) translate(29, -16)" d="M31.229,17.736c0.064-0.571,0.104-1.148,0.104-1.736s-0.04-1.166-0.104-1.737l-4.377-1.557c-0.218-0.716-0.504-1.401-0.851-2.05l1.993-4.192c-0.725-0.91-1.549-1.734-2.458-2.459l-4.193,1.994c-0.647-0.347-1.334-0.632-2.049-0.849l-1.558-4.378C17.165,0.708,16.588,0.667,16,0.667s-1.166,0.041-1.737,0.105L12.707,5.15c-0.716,0.217-1.401,0.502-2.05,0.849L6.464,4.005C5.554,4.73,4.73,5.554,4.005,6.464l1.994,4.192c-0.347,0.648-0.632,1.334-0.849,2.05l-4.378,1.557C0.708,14.834,0.667,15.412,0.667,16s0.041,1.165,0.105,1.736l4.378,1.558c0.217,0.715,0.502,1.401,0.849,2.049l-1.994,4.193c0.725,0.909,1.549,1.733,2.459,2.458l4.192-1.993c0.648,0.347,1.334,0.633,2.05,0.851l1.557,4.377c0.571,0.064,1.148,0.104,1.737,0.104c0.588,0,1.165-0.04,1.736-0.104l1.558-4.377c0.715-0.218,1.399-0.504,2.049-0.851l4.193,1.993c0.909-0.725,1.733-1.549,2.458-2.458l-1.993-4.193c0.347-0.647,0.633-1.334,0.851-2.049L31.229,17.736zM16,20.871c-2.69,0-4.872-2.182-4.872-4.871c0-2.69,2.182-4.872,4.872-4.872c2.689,0,4.871,2.182,4.871,4.872C20.871,18.689,18.689,20.871,16,20.871z"></path><title>Link options.</title></g></g></g></g><!--z-index:29--><g   id="j_13" ><path  stroke="#aaaaaa" d="M 975 1767 L 634 1945 C 628 1948.3333333333333 625 1953.3333333333333 625 1960 L 625 2100" id="v-174" stroke-width="2" stroke-dasharray="30 30" fill="none"></path><path  fill="black" stroke="black" d="M 0 0 0 0" transform="matrix(-0.8865834984138412,0.462568589876436,-0.462568589876436,-0.8865834984138412,975,1767.3900146484375)"></path><path  fill="#aaaaaa" stroke="#aaaaaa" d="M 20 0 L 0 10 L 20 20 z" id="v-176" transform="matrix(-1.8369701987210297e-16,-1,1,-1.8369701987210297e-16,615,2100)"></path><path  d="M 975 1767 L 634 1945 C 628 1948.3333333333333 625 1953.3333333333333 625 1960 L 625 2100" id="v-175" fill="none" style="cursor: default;"></path><g ><g id="v-168"  label-idx="0" cursor="move" transform="matrix(1,0,0,1,734.2669067382812,1892.6612548828125)" style="cursor: default;"><rect joint-selector="rect" id="v-171" fill="#111111" rx="3" ry="3" pointer-events="none" width="196.64234924316406" height="147.51996612548828" transform="matrix(1,0,0,1,-98.3,-73.8)"></rect><text joint-selector="text" id="v-170" font-size="24px" xml:space="preserve" y="0.8em" fill="#aaaaaa" text-anchor="middle" pointer-events="none" font-family="Open Sans" font-weight="normal" transform="matrix(1,0,0,1,0,-67.7)"><tspan dy="0" >5: Gather</tspan><tspan dy="1.2em" x="0" >evidence from</tspan><tspan dy="1.2em" x="0" >service endpoints</tspan><tspan dy="1.2em" x="0" >based on</tspan><tspan dy="1.2em" x="0" >configuration</tspan></text></g><g id="v-169"  label-idx="1" cursor="move" transform="matrix(1,0,0,1,724.2669067382812,1976.6612548828125)" style="cursor: default;"><rect joint-selector="rect" id="v-173" fill="#ffffff" rx="3" ry="3"  width="0" height="0" transform="matrix(1,0,0,1,0,0)" display="none"></rect><text joint-selector="text" id="v-172" fill="#000000" font-size="14" text-anchor="middle" pointer-events="none"></text></g></g><g  display="none"><g  transform="translate(625, 1950)" id="v-165"><circle  idx="0" r="10"></circle><path  idx="0" d="M16,5.333c-7.732,0-14,4.701-14,10.5c0,1.982,0.741,3.833,2.016,5.414L2,25.667l5.613-1.441c2.339,1.317,5.237,2.107,8.387,2.107c7.732,0,14-4.701,14-10.5C30,10.034,23.732,5.333,16,5.333z" transform="translate(5, -33)"></path><path  idx="0" transform="scale(.8) translate(9.5, -37)" d="M24.778,21.419 19.276,15.917 24.777,10.415 21.949,7.585 16.447,13.087 10.945,7.585 8.117,10.415 13.618,15.917 8.116,21.419 10.946,24.248 16.447,18.746 21.948,24.248z"><title>Remove vertex.</title></path></g></g><g  id="v-178" display="none"><g  id="v-166"><path  end="source" d="M 26 0 L 0 13 L 26 26 z"></path></g><g  id="v-167"><path  end="target" d="M 26 0 L 0 13 L 26 26 z"></path></g></g><g  id="v-177" display="none"><g  id="v-164" transform="translate(939.5403151810797, 1785.5097475007854) "><g  event="remove"><circle r="11"></circle><path transform="scale(.8) translate(-16, -16)" d="M24.778,21.419 19.276,15.917 24.777,10.415 21.949,7.585 16.447,13.087 10.945,7.585 8.117,10.415 13.618,15.917 8.116,21.419 10.946,24.248 16.447,18.746 21.948,24.248z"></path><title>Remove link.</title></g><g  event="link:options"><circle r="11" transform="translate(25)"></circle><path fill="white" transform="scale(.55) translate(29, -16)" d="M31.229,17.736c0.064-0.571,0.104-1.148,0.104-1.736s-0.04-1.166-0.104-1.737l-4.377-1.557c-0.218-0.716-0.504-1.401-0.851-2.05l1.993-4.192c-0.725-0.91-1.549-1.734-2.458-2.459l-4.193,1.994c-0.647-0.347-1.334-0.632-2.049-0.849l-1.558-4.378C17.165,0.708,16.588,0.667,16,0.667s-1.166,0.041-1.737,0.105L12.707,5.15c-0.716,0.217-1.401,0.502-2.05,0.849L6.464,4.005C5.554,4.73,4.73,5.554,4.005,6.464l1.994,4.192c-0.347,0.648-0.632,1.334-0.849,2.05l-4.378,1.557C0.708,14.834,0.667,15.412,0.667,16s0.041,1.165,0.105,1.736l4.378,1.558c0.217,0.715,0.502,1.401,0.849,2.049l-1.994,4.193c0.725,0.909,1.549,1.733,2.459,2.458l4.192-1.993c0.648,0.347,1.334,0.633,2.05,0.851l1.557,4.377c0.571,0.064,1.148,0.104,1.737,0.104c0.588,0,1.165-0.04,1.736-0.104l1.558-4.377c0.715-0.218,1.399-0.504,2.049-0.851l4.193,1.993c0.909-0.725,1.733-1.549,2.458-2.458l-1.993-4.193c0.347-0.647,0.633-1.334,0.851-2.049L31.229,17.736zM16,20.871c-2.69,0-4.872-2.182-4.872-4.871c0-2.69,2.182-4.872,4.872-4.872c2.689,0,4.871,2.182,4.871,4.872C20.871,18.689,18.689,20.871,16,20.871z"></path><title>Link options.</title></g></g></g></g><!--z-index:30--><g   id="j_14" ><path  stroke="#aaaaaa" d="M 1288 1800 L 1370 1941 C 1373.3333333333333 1947 1375 1953.3333333333333 1375 1960 L 1375 2100" id="v-192" stroke-width="2" stroke-dasharray="30 30" fill="none"></path><path  fill="black" stroke="black" d="M 0 0 0 0" transform="matrix(0.5038709988513701,0.8637789164575173,-0.8637789164575173,0.5038709988513701,1287.5,1800)"></path><path  fill="#aaaaaa" stroke="#aaaaaa" d="M 20 0 L 0 10 L 20 20 z" id="v-194" transform="matrix(-1.8369701987210297e-16,-1,1,-1.8369701987210297e-16,1365,2100)"></path><path  d="M 1288 1800 L 1370 1941 C 1373.3333333333333 1947 1375 1953.3333333333333 1375 1960 L 1375 2100" id="v-193" fill="none" style="cursor: default;"></path><g ><g id="v-186"  label-idx="0" cursor="move" transform="matrix(1,0,0,1,1369.1832275390625,1939.5955810546875)" style="cursor: default;"><rect joint-selector="rect" id="v-189" fill="#111111" rx="3" ry="3" pointer-events="none" width="194.51255798339844" height="147.51996612548828" transform="matrix(1,0,0,1,-98,-73.8)"></rect><text joint-selector="text" id="v-188" font-size="24px" xml:space="preserve" y="0.8em" fill="#aaaaaa" text-anchor="middle" pointer-events="none" font-family="Open Sans" font-weight="normal" transform="matrix(1,0,0,1,0,-67.7)"><tspan dy="0" >6: pass evidence</tspan><tspan dy="1.2em" x="0" >results to</tspan><tspan dy="1.2em" x="0" >validation service</tspan><tspan dy="1.2em" x="0" >and store</tspan><tspan dy="1.2em" x="0" >validation result</tspan></text></g><g id="v-187"  label-idx="1" cursor="move" transform="matrix(1,0,0,1,1359.1832275390625,2023.5955810546875)" style="cursor: default;"><rect joint-selector="rect" id="v-191" fill="#ffffff" rx="3" ry="3"  width="0" height="0" transform="matrix(1,0,0,1,0,0)" display="none"></rect><text joint-selector="text" id="v-190" fill="#000000" font-size="14" text-anchor="middle" pointer-events="none"></text></g></g><g  display="none"><g  transform="translate(1375, 1950)" id="v-183"><circle  idx="0" r="10"></circle><path  idx="0" d="M16,5.333c-7.732,0-14,4.701-14,10.5c0,1.982,0.741,3.833,2.016,5.414L2,25.667l5.613-1.441c2.339,1.317,5.237,2.107,8.387,2.107c7.732,0,14-4.701,14-10.5C30,10.034,23.732,5.333,16,5.333z" transform="translate(5, -33)"></path><path  idx="0" transform="scale(.8) translate(9.5, -37)" d="M24.778,21.419 19.276,15.917 24.777,10.415 21.949,7.585 16.447,13.087 10.945,7.585 8.117,10.415 13.618,15.917 8.116,21.419 10.946,24.248 16.447,18.746 21.948,24.248z"><title>Remove vertex.</title></path></g></g><g  id="v-196" display="none"><g  id="v-184"><path  end="source" d="M 26 0 L 0 13 L 26 26 z"></path></g><g  id="v-185"><path  end="target" d="M 26 0 L 0 13 L 26 26 z"></path></g></g><g  id="v-195" display="none"><g  id="v-182" transform="translate(1308.1090804727398, 1834.577809105565) "><g  event="remove"><circle r="11"></circle><path transform="scale(.8) translate(-16, -16)" d="M24.778,21.419 19.276,15.917 24.777,10.415 21.949,7.585 16.447,13.087 10.945,7.585 8.117,10.415 13.618,15.917 8.116,21.419 10.946,24.248 16.447,18.746 21.948,24.248z"></path><title>Remove link.</title></g><g  event="link:options"><circle r="11" transform="translate(25)"></circle><path fill="white" transform="scale(.55) translate(29, -16)" d="M31.229,17.736c0.064-0.571,0.104-1.148,0.104-1.736s-0.04-1.166-0.104-1.737l-4.377-1.557c-0.218-0.716-0.504-1.401-0.851-2.05l1.993-4.192c-0.725-0.91-1.549-1.734-2.458-2.459l-4.193,1.994c-0.647-0.347-1.334-0.632-2.049-0.849l-1.558-4.378C17.165,0.708,16.588,0.667,16,0.667s-1.166,0.041-1.737,0.105L12.707,5.15c-0.716,0.217-1.401,0.502-2.05,0.849L6.464,4.005C5.554,4.73,4.73,5.554,4.005,6.464l1.994,4.192c-0.347,0.648-0.632,1.334-0.849,2.05l-4.378,1.557C0.708,14.834,0.667,15.412,0.667,16s0.041,1.165,0.105,1.736l4.378,1.558c0.217,0.715,0.502,1.401,0.849,2.049l-1.994,4.193c0.725,0.909,1.549,1.733,2.459,2.458l4.192-1.993c0.648,0.347,1.334,0.633,2.05,0.851l1.557,4.377c0.571,0.064,1.148,0.104,1.737,0.104c0.588,0,1.165-0.04,1.736-0.104l1.558-4.377c0.715-0.218,1.399-0.504,2.049-0.851l4.193,1.993c0.909-0.725,1.733-1.549,2.458-2.458l-1.993-4.193c0.347-0.647,0.633-1.334,0.851-2.049L31.229,17.736zM16,20.871c-2.69,0-4.872-2.182-4.872-4.871c0-2.69,2.182-4.872,4.872-4.872c2.689,0,4.871,2.182,4.871,4.872C20.871,18.689,18.689,20.871,16,20.871z"></path><title>Link options.</title></g></g></g></g><!--z-index:31--><g   id="j_15" ><path  stroke="#aaaaaa" d="M 1202 900 L 1205 745 C 1205 738.3333333333333 1205 731.6666666666666 1205 725 L 1203 600" id="v-210" stroke-width="2" stroke-dasharray="30 30" fill="none"></path><path  fill="black" stroke="black" d="M 0 0 0 0" transform="matrix(0.015876566722387346,-0.9998739593714348,0.9998739593714348,0.015876566722387346,1202.3800048828125,900)"></path><path  fill="#aaaaaa" stroke="#aaaaaa" d="M 20 0 L 0 10 L 20 20 z" id="v-212" transform="matrix(0.014887186325290529,0.9998891797010887,-0.9998891797010887,0.014887186325290529,1212.988935949383,599.8511377069237)"></path><path  d="M 1202 900 L 1205 745 C 1205 738.3333333333333 1205 731.6666666666666 1205 725 L 1203 600" id="v-211" fill="none" style="cursor: default;"></path><g ><g id="v-204"  label-idx="0" cursor="move" transform="matrix(1,0,0,1,1204.903076171875,750.0055541992188)" style="cursor: default;"><rect joint-selector="rect" id="v-207" fill="#111111" rx="3" ry="3" pointer-events="none" width="126.07418060302734" height="89.91996002197266" transform="matrix(1,0,0,1,-63,-45)"></rect><text joint-selector="text" id="v-206" font-size="24px" xml:space="preserve" y="0.8em" fill="#aaaaaa" text-anchor="middle" pointer-events="none" font-family="Open Sans" font-weight="normal" transform="matrix(1,0,0,1,0,-38.9)"><tspan dy="0" >7: generate</tspan><tspan dy="1.2em" x="0" >actionable</tspan><tspan dy="1.2em" x="0" >reports</tspan></text></g><g id="v-205"  label-idx="1" cursor="move" transform="matrix(1,0,0,1,1194.903076171875,805.20556640625)" style="cursor: default;"><rect joint-selector="rect" id="v-209" fill="#ffffff" rx="3" ry="3"  width="0" height="0" transform="matrix(1,0,0,1,0,0)" display="none"></rect><text joint-selector="text" id="v-208" fill="#000000" font-size="14" text-anchor="middle" pointer-events="none"></text></g></g><g  display="none"><g  transform="translate(1205, 735)" id="v-447"><circle  idx="0" r="10"></circle><path  idx="0" d="M16,5.333c-7.732,0-14,4.701-14,10.5c0,1.982,0.741,3.833,2.016,5.414L2,25.667l5.613-1.441c2.339,1.317,5.237,2.107,8.387,2.107c7.732,0,14-4.701,14-10.5C30,10.034,23.732,5.333,16,5.333z" transform="translate(5, -33)"></path><path  idx="0" transform="scale(.8) translate(9.5, -37)" d="M24.778,21.419 19.276,15.917 24.777,10.415 21.949,7.585 16.447,13.087 10.945,7.585 8.117,10.415 13.618,15.917 8.116,21.419 10.946,24.248 16.447,18.746 21.948,24.248z"><title>Remove vertex.</title></path></g></g><g  id="v-214" display="none"><g  id="v-202"><path  end="source" d="M 26 0 L 0 13 L 26 26 z"></path></g><g  id="v-203"><path  end="target" d="M 26 0 L 0 13 L 26 26 z"></path></g></g><g  id="v-213" display="none"><g  id="v-200" transform="translate(1202.774048578878, 860.007490091299) "><g  event="remove"><circle r="11"></circle><path transform="scale(.8) translate(-16, -16)" d="M24.778,21.419 19.276,15.917 24.777,10.415 21.949,7.585 16.447,13.087 10.945,7.585 8.117,10.415 13.618,15.917 8.116,21.419 10.946,24.248 16.447,18.746 21.948,24.248z"></path><title>Remove link.</title></g><g  event="link:options"><circle r="11" transform="translate(25)"></circle><path fill="white" transform="scale(.55) translate(29, -16)" d="M31.229,17.736c0.064-0.571,0.104-1.148,0.104-1.736s-0.04-1.166-0.104-1.737l-4.377-1.557c-0.218-0.716-0.504-1.401-0.851-2.05l1.993-4.192c-0.725-0.91-1.549-1.734-2.458-2.459l-4.193,1.994c-0.647-0.347-1.334-0.632-2.049-0.849l-1.558-4.378C17.165,0.708,16.588,0.667,16,0.667s-1.166,0.041-1.737,0.105L12.707,5.15c-0.716,0.217-1.401,0.502-2.05,0.849L6.464,4.005C5.554,4.73,4.73,5.554,4.005,6.464l1.994,4.192c-0.347,0.648-0.632,1.334-0.849,2.05l-4.378,1.557C0.708,14.834,0.667,15.412,0.667,16s0.041,1.165,0.105,1.736l4.378,1.558c0.217,0.715,0.502,1.401,0.849,2.049l-1.994,4.193c0.725,0.909,1.549,1.733,2.459,2.458l4.192-1.993c0.648,0.347,1.334,0.633,2.05,0.851l1.557,4.377c0.571,0.064,1.148,0.104,1.737,0.104c0.588,0,1.165-0.04,1.736-0.104l1.558-4.377c0.715-0.218,1.399-0.504,2.049-0.851l4.193,1.993c0.909-0.725,1.733-1.549,2.458-2.458l-1.993-4.193c0.347-0.647,0.633-1.334,0.851-2.049L31.229,17.736zM16,20.871c-2.69,0-4.872-2.182-4.872-4.871c0-2.69,2.182-4.872,4.872-4.872c2.689,0,4.871,2.182,4.871,4.872C20.871,18.689,18.689,20.871,16,20.871z"></path><title>Link options.</title></g></g></g></g><!--z-index:32--><g   id="j_16" ><path  stroke="#aaaaaa" d="M 560 1168 L 766 1295 C 772 1298.3333333333333 778 1298.3333333333333 784 1295 L 975 1182" id="v-227" stroke-width="2" stroke-dasharray="30 30" fill="none"></path><path  fill="black" stroke="black" d="M 0 0 0 0" transform="matrix(0.8520078012640521,0.5235290885759791,-0.5235290885759791,0.8520078012640521,560,1167.8900146484375)"></path><path  fill="#aaaaaa" stroke="#aaaaaa" d="M 20 0 L 0 10 L 20 20 z" id="v-229" transform="matrix(-0.8619286724708501,0.5070295490133073,-0.5070295490133073,-0.8619286724708501,980.0703195195291,1190.969279320513)"></path><path  d="M 560 1168 L 766 1295 C 772 1298.3333333333333 778 1298.3333333333333 784 1295 L 975 1182" id="v-228" fill="none" style="cursor: default;"></path><g ><g id="v-221"  label-idx="0" cursor="move" transform="matrix(1,0,0,1,765.4915161132812,1294.6865234375)" style="cursor: default;"><rect joint-selector="rect" id="v-224" fill="#111111" rx="3" ry="3" pointer-events="none" width="183.40257263183594" height="118.71996307373047" transform="matrix(1,0,0,1,-91.7,-59.4)"></rect><text joint-selector="text" id="v-223" font-size="24px" xml:space="preserve" y="0.8em" fill="#aaaaaa" text-anchor="middle" pointer-events="none" font-family="Open Sans" font-weight="normal" transform="matrix(1,0,0,1,0,-53.3)"><tspan dy="0" >8: act on reports</tspan><tspan dy="1.2em" x="0" >and rerun</tspan><tspan dy="1.2em" x="0" >validation</tspan><tspan dy="1.2em" x="0" >process</tspan></text></g><g id="v-222"  label-idx="1" cursor="move" transform="matrix(1,0,0,1,755.4915161132812,1364.2864990234375)" style="cursor: default;"><rect joint-selector="rect" id="v-226" fill="#ffffff" rx="3" ry="3"  width="0" height="0" transform="matrix(1,0,0,1,0,0)" display="none"></rect><text joint-selector="text" id="v-225" fill="#000000" font-size="14" text-anchor="middle" pointer-events="none"></text></g></g><g  display="none"><g  transform="translate(775, 1300)" id="v-538"><circle  idx="0" r="10"></circle><path  idx="0" d="M16,5.333c-7.732,0-14,4.701-14,10.5c0,1.982,0.741,3.833,2.016,5.414L2,25.667l5.613-1.441c2.339,1.317,5.237,2.107,8.387,2.107c7.732,0,14-4.701,14-10.5C30,10.034,23.732,5.333,16,5.333z" transform="translate(5, -33)"></path><path  idx="0" transform="scale(.8) translate(9.5, -37)" d="M24.778,21.419 19.276,15.917 24.777,10.415 21.949,7.585 16.447,13.087 10.945,7.585 8.117,10.415 13.618,15.917 8.116,21.419 10.946,24.248 16.447,18.746 21.948,24.248z"><title>Remove vertex.</title></path></g></g><g  id="v-231" display="none"><g  id="v-219"><path  end="source" d="M 26 0 L 0 13 L 26 26 z"></path></g><g  id="v-220"><path  end="target" d="M 26 0 L 0 13 L 26 26 z"></path></g></g><g  id="v-230" display="none"><g  id="v-218" transform="translate(594.0492960765084, 1188.9915563190125) "><g  event="remove"><circle r="11"></circle><path transform="scale(.8) translate(-16, -16)" d="M24.778,21.419 19.276,15.917 24.777,10.415 21.949,7.585 16.447,13.087 10.945,7.585 8.117,10.415 13.618,15.917 8.116,21.419 10.946,24.248 16.447,18.746 21.948,24.248z"></path><title>Remove link.</title></g><g  event="link:options"><circle r="11" transform="translate(25)"></circle><path fill="white" transform="scale(.55) translate(29, -16)" d="M31.229,17.736c0.064-0.571,0.104-1.148,0.104-1.736s-0.04-1.166-0.104-1.737l-4.377-1.557c-0.218-0.716-0.504-1.401-0.851-2.05l1.993-4.192c-0.725-0.91-1.549-1.734-2.458-2.459l-4.193,1.994c-0.647-0.347-1.334-0.632-2.049-0.849l-1.558-4.378C17.165,0.708,16.588,0.667,16,0.667s-1.166,0.041-1.737,0.105L12.707,5.15c-0.716,0.217-1.401,0.502-2.05,0.849L6.464,4.005C5.554,4.73,4.73,5.554,4.005,6.464l1.994,4.192c-0.347,0.648-0.632,1.334-0.849,2.05l-4.378,1.557C0.708,14.834,0.667,15.412,0.667,16s0.041,1.165,0.105,1.736l4.378,1.558c0.217,0.715,0.502,1.401,0.849,2.049l-1.994,4.193c0.725,0.909,1.549,1.733,2.459,2.458l4.192-1.993c0.648,0.347,1.334,0.633,2.05,0.851l1.557,4.377c0.571,0.064,1.148,0.104,1.737,0.104c0.588,0,1.165-0.04,1.736-0.104l1.558-4.377c0.715-0.218,1.399-0.504,2.049-0.851l4.193,1.993c0.909-0.725,1.733-1.549,2.458-2.458l-1.993-4.193c0.347-0.647,0.633-1.334,0.851-2.049L31.229,17.736zM16,20.871c-2.69,0-4.872-2.182-4.872-4.871c0-2.69,2.182-4.872,4.872-4.872c2.689,0,4.871,2.182,4.871,4.872C20.871,18.689,18.689,20.871,16,20.871z"></path><title>Link options.</title></g></g></g></g><!--z-index:33--><g   id="j_17" ><path  stroke="#aaaaaa" d="M 1319 600 L 1400 736 C 1403.3333333333333 742 1403 747.6666666666666 1399 753 L 1301 900" id="v-244" stroke-width="2" stroke-dasharray="30 30" fill="none"></path><path  fill="black" stroke="black" d="M 0 0 0 0" transform="matrix(0.510829141703826,0.8596822598996285,-0.8596822598996285,0.510829141703826,1318.8399658203125,600)"></path><path  fill="#aaaaaa" stroke="#aaaaaa" d="M 20 0 L 0 10 L 20 20 z" id="v-246" transform="matrix(0.5578347618381478,-0.8299520338459186,0.8299520338459186,0.5578347618381478,1292.5204474728469,894.4216732083589)"></path><path  d="M 1319 600 L 1400 736 C 1403.3333333333333 742 1403 747.6666666666666 1399 753 L 1301 900" id="v-245" fill="none" style="cursor: default;"></path><g ><g id="v-238"  label-idx="0" cursor="move" transform="matrix(1,0,0,1,1398.9375,753.09375)" style="cursor: default;"><rect joint-selector="rect" id="v-241" fill="#111111" rx="3" ry="3" pointer-events="none" width="183.40257263183594" height="118.71996307373047" transform="matrix(1,0,0,1,-91.7,-59.4)"></rect><text joint-selector="text" id="v-240" font-size="24px" xml:space="preserve" y="0.8em" fill="#aaaaaa" text-anchor="middle" pointer-events="none" font-family="Open Sans" font-weight="normal" transform="matrix(1,0,0,1,0,-53.3)"><tspan dy="0" >9: act on reports</tspan><tspan dy="1.2em" x="0" >and rerun</tspan><tspan dy="1.2em" x="0" >validation</tspan><tspan dy="1.2em" x="0" >process</tspan></text></g><g id="v-239"  label-idx="1" cursor="move" transform="matrix(1,0,0,1,1388.9375,822.6937255859375)" style="cursor: default;"><rect joint-selector="rect" id="v-243" fill="#ffffff" rx="3" ry="3"  width="0" height="0" transform="matrix(1,0,0,1,0,0)" display="none"></rect><text joint-selector="text" id="v-242" fill="#000000" font-size="14" text-anchor="middle" pointer-events="none"></text></g></g><g  display="none"><g  transform="translate(1405, 745)" id="v-446"><circle  idx="0" r="10"></circle><path  idx="0" d="M16,5.333c-7.732,0-14,4.701-14,10.5c0,1.982,0.741,3.833,2.016,5.414L2,25.667l5.613-1.441c2.339,1.317,5.237,2.107,8.387,2.107c7.732,0,14-4.701,14-10.5C30,10.034,23.732,5.333,16,5.333z" transform="translate(5, -33)"></path><path  idx="0" transform="scale(.8) translate(9.5, -37)" d="M24.778,21.419 19.276,15.917 24.777,10.415 21.949,7.585 16.447,13.087 10.945,7.585 8.117,10.415 13.618,15.917 8.116,21.419 10.946,24.248 16.447,18.746 21.948,24.248z"><title>Remove vertex.</title></path></g></g><g  id="v-248" display="none"><g  id="v-236"><path  end="source" d="M 26 0 L 0 13 L 26 26 z"></path></g><g  id="v-237"><path  end="target" d="M 26 0 L 0 13 L 26 26 z"></path></g></g><g  id="v-247" display="none"><g  id="v-235" transform="translate(1339.4682387308587, 634.3664255234171) "><g  event="remove"><circle r="11"></circle><path transform="scale(.8) translate(-16, -16)" d="M24.778,21.419 19.276,15.917 24.777,10.415 21.949,7.585 16.447,13.087 10.945,7.585 8.117,10.415 13.618,15.917 8.116,21.419 10.946,24.248 16.447,18.746 21.948,24.248z"></path><title>Remove link.</title></g><g  event="link:options"><circle r="11" transform="translate(25)"></circle><path fill="white" transform="scale(.55) translate(29, -16)" d="M31.229,17.736c0.064-0.571,0.104-1.148,0.104-1.736s-0.04-1.166-0.104-1.737l-4.377-1.557c-0.218-0.716-0.504-1.401-0.851-2.05l1.993-4.192c-0.725-0.91-1.549-1.734-2.458-2.459l-4.193,1.994c-0.647-0.347-1.334-0.632-2.049-0.849l-1.558-4.378C17.165,0.708,16.588,0.667,16,0.667s-1.166,0.041-1.737,0.105L12.707,5.15c-0.716,0.217-1.401,0.502-2.05,0.849L6.464,4.005C5.554,4.73,4.73,5.554,4.005,6.464l1.994,4.192c-0.347,0.648-0.632,1.334-0.849,2.05l-4.378,1.557C0.708,14.834,0.667,15.412,0.667,16s0.041,1.165,0.105,1.736l4.378,1.558c0.217,0.715,0.502,1.401,0.849,2.049l-1.994,4.193c0.725,0.909,1.549,1.733,2.459,2.458l4.192-1.993c0.648,0.347,1.334,0.633,2.05,0.851l1.557,4.377c0.571,0.064,1.148,0.104,1.737,0.104c0.588,0,1.165-0.04,1.736-0.104l1.558-4.377c0.715-0.218,1.399-0.504,2.049-0.851l4.193,1.993c0.909-0.725,1.733-1.549,2.458-2.458l-1.993-4.193c0.347-0.647,0.633-1.334,0.851-2.049L31.229,17.736zM16,20.871c-2.69,0-4.872-2.182-4.872-4.871c0-2.69,2.182-4.872,4.872-4.872c2.689,0,4.871,2.182,4.871,4.872C20.871,18.689,18.689,20.871,16,20.871z"></path><title>Link options.</title></g></g></g></g><!--z-index:34--></g><g ></g><g ></g><g ></g></g></svg>